<?xml version="1.0" standalone="no"?>
<!DOCTYPE svg PUBLIC "-//W3C//DTD SVG 20010904//EN"
 "http://www.w3.org/TR/2001/REC-SVG-20010904/DTD/svg10.dtd">
<svg version="1.0" xmlns="http://www.w3.org/2000/svg"
 width="650.000000pt" height="650.000000pt" viewBox="0 0 650.000000 650.000000"
 preserveAspectRatio="xMidYMid meet">
<metadata>
Created by potrace 1.11, written by Peter Selinger 2001-2013
</metadata>
<g transform="translate(0.000000,650.000000) scale(0.100000,-0.100000)"
fill="#000000" stroke="none">
<path d="M3245 6370 c3 -5 8 -10 11 -10 2 0 4 5 4 10 0 6 -5 10 -11 10 -5 0
-7 -4 -4 -10z"/>
<path d="M3265 6359 c-4 -5 -12 -8 -18 -6 -7 2 -20 -10 -31 -27 -12 -20 -14
-32 -7 -34 17 -6 13 -23 -5 -20 -10 2 -20 -7 -25 -20 -6 -15 -5 -21 1 -17 20
13 9 -17 -15 -39 -25 -23 -34 -43 -15 -31 6 3 10 -1 10 -9 0 -9 -6 -13 -14
-10 -10 4 -12 -2 -8 -22 3 -19 1 -25 -7 -20 -18 12 -13 -12 8 -33 20 -20 18
-31 -7 -31 -8 0 -12 6 -8 15 3 9 0 15 -8 15 -8 0 -16 -6 -18 -12 -4 -10 -17
-10 -64 1 -32 8 -71 14 -86 14 -16 0 -28 4 -28 9 0 5 -7 3 -15 -6 -8 -8 -15
-18 -15 -21 0 -4 7 -5 15 -1 8 3 15 1 15 -4 0 -19 -25 -10 -46 18 -12 15 -26
24 -30 19 -4 -4 2 -17 13 -30 11 -12 26 -33 33 -46 10 -19 14 -21 22 -10 7 11
8 9 6 -6 -1 -11 17 -49 40 -85 23 -36 42 -60 42 -55 0 6 -12 27 -26 48 -14 21
-24 43 -21 50 2 7 16 -12 31 -42 15 -29 25 -58 23 -65 -8 -21 26 -44 51 -35
13 5 20 13 17 19 -11 18 -14 51 -4 45 5 -4 9 -15 9 -26 0 -13 7 -19 21 -19 13
0 18 4 13 13 -5 7 0 6 11 -3 10 -8 19 -14 19 -12 1 2 8 1 16 -2 8 -3 24 -7 35
-10 11 -3 -4 -2 -34 1 -36 3 -51 2 -47 -5 4 -7 30 -9 69 -6 69 7 201 6 263 -1
37 -4 42 -1 55 23 7 15 27 47 45 72 17 25 48 69 68 98 20 29 34 57 31 63 -4 5
-1 8 6 7 6 -2 14 3 16 10 6 16 -47 15 -112 -3 -27 -7 -44 -14 -37 -14 6 -1 12
-6 12 -12 0 -5 -6 -7 -12 -3 -10 6 -9 3 0 -8 8 -9 20 -14 28 -11 7 3 17 -2 20
-11 3 -9 12 -16 20 -16 8 0 14 -4 14 -8 0 -11 -34 -42 -46 -42 -5 0 -4 4 3 8
6 4 9 18 6 32 -4 21 -10 25 -31 24 -52 -4 -57 -6 -27 -14 24 -6 25 -8 8 -9
-40 -2 -122 46 -106 63 3 3 -7 35 -22 71 -20 46 -31 62 -37 53 -6 -9 -8 -2 -5
20 3 29 -2 36 -24 34 -4 -1 -9 10 -11 23 -3 13 -1 22 3 19 5 -3 9 0 9 5 0 6
-4 11 -10 11 -5 0 -10 10 -11 23 0 12 -3 16 -6 10 -2 -7 -9 -13 -14 -13 -6 0
-7 5 -4 10 3 6 1 10 -5 10 -6 0 -8 5 -5 10 4 6 11 8 16 5 5 -3 6 1 3 9 -7 19
-11 20 -19 5z m5 -78 c0 -5 3 -17 6 -25 5 -12 2 -15 -12 -10 -18 5 -18 5 0
-10 11 -9 18 -16 15 -17 -2 0 -15 -2 -28 -5 -19 -3 -22 -1 -16 13 4 10 9 27
10 38 4 26 4 25 15 25 6 0 10 -4 10 -9z m-44 -48 c-10 -10 -19 5 -10 18 6 11
8 11 12 0 2 -7 1 -15 -2 -18z m141 -114 c-4 -21 -4 -21 -6 5 -1 24 -3 27 -16
16 -9 -8 -15 -8 -15 -2 0 14 23 22 33 12 5 -4 7 -18 4 -31z m-137 -3 c0 -11
-19 -15 -25 -6 -3 5 1 10 9 10 9 0 16 -2 16 -4z m10 -36 c0 -11 -4 -20 -9 -20
-5 0 -7 9 -4 20 3 11 7 20 9 20 2 0 4 -9 4 -20z m110 0 c0 -5 -7 -10 -15 -10
-8 0 -15 5 -15 10 0 6 7 10 15 10 8 0 15 -4 15 -10z m-380 -14 c0 -3 -4 -8
-10 -11 -5 -3 -10 -1 -10 4 0 6 5 11 10 11 6 0 10 -2 10 -4z m646 -12 c18 7
18 6 2 -10 -18 -18 -38 -11 -38 14 0 14 2 14 9 3 6 -9 16 -11 27 -7z m-627
-36 c-5 -18 -9 -34 -9 -35 0 -2 -3 -3 -7 -3 -5 0 -7 14 -7 30 2 40 2 40 18 40
12 0 13 -7 5 -32z m121 7 c0 -6 -5 -16 -12 -23 -7 -7 -9 -12 -4 -12 4 0 14 7
22 15 17 17 44 20 44 5 0 -5 -7 -10 -16 -10 -8 0 -13 -4 -10 -8 2 -4 -5 -9
-16 -9 -12 -1 -25 -8 -30 -15 -7 -10 -8 -10 -7 2 4 37 -2 50 -22 50 -11 0 -18
4 -15 9 8 12 66 8 66 -4z m-100 -30 c-11 -14 -7 -19 12 -16 4 0 5 -5 2 -13 -3
-8 -14 -12 -25 -9 -10 3 -17 8 -15 12 1 3 6 14 9 24 4 9 12 17 18 17 8 0 8 -4
-1 -15z m153 -40 c-3 -11 -1 -13 10 -9 8 3 18 0 22 -6 5 -8 -1 -11 -16 -8 -17
2 -24 10 -25 25 -1 12 2 20 7 17 4 -2 6 -11 2 -19z m367 4 c12 -9 11 -10 -7
-6 -12 3 -27 -1 -34 -9 -13 -16 -29 -18 -29 -4 0 6 3 9 8 9 19 -3 25 2 12 11
-12 8 -10 10 10 10 14 0 32 -5 40 -11z m-90 -23 c-4 -4 -16 -4 -26 2 -16 9
-14 10 8 9 15 -1 23 -6 18 -11z m-203 -2 c-3 -3 -12 -4 -19 -1 -8 3 -5 6 6 6
11 1 17 -2 13 -5z m-79 -13 c10 -6 7 -10 -12 -13 -18 -4 -26 -1 -26 8 0 16 18
18 38 5z m-53 -21 c3 -5 -1 -10 -9 -10 -9 0 -16 5 -16 10 0 6 4 10 9 10 6 0
13 -4 16 -10z m162 4 c-3 -3 -12 -4 -19 -1 -8 3 -5 6 6 6 11 1 17 -2 13 -5z
m130 -1 c-10 -9 -97 -10 -97 0 0 4 23 7 52 7 28 0 48 -3 45 -7z m115 -36 c-21
-44 -27 -46 -27 -7 0 22 5 30 18 30 9 0 17 5 17 12 0 6 2 9 5 7 2 -3 -3 -22
-13 -42z m-86 -22 c1 -15 -3 -25 -12 -25 -12 0 -13 18 -5 48 1 1 4 2 9 2 4 0
8 -11 8 -25z m-46 -4 c0 -14 -29 -21 -36 -9 -4 6 -3 8 4 4 6 -3 13 -2 17 4 8
12 15 13 15 1z"/>
<path d="M3445 6046 c-18 -13 -18 -14 4 -21 12 -4 25 -4 28 -1 4 3 1 6 -7 6
-10 0 -10 3 0 15 16 19 0 20 -25 1z"/>
<path d="M2459 5964 c-10 -13 -10 -17 1 -24 11 -7 11 -11 1 -24 -7 -9 -18 -13
-23 -10 -7 4 -7 9 0 13 5 3 -13 7 -41 8 -29 1 -58 -3 -64 -9 -17 -14 -16 -43
2 -58 9 -8 15 -8 15 -2 0 6 -5 12 -12 14 -7 3 -8 10 -3 17 6 11 10 10 17 -2 6
-12 15 -14 31 -8 12 4 28 6 35 3 7 -2 24 6 37 18 17 16 32 21 54 18 17 -3 31
-1 31 3 0 21 -21 59 -32 59 -9 0 -8 -3 2 -10 20 -12 0 -33 -24 -24 -13 5 -14
9 -5 20 7 8 7 14 1 14 -5 0 -15 -7 -23 -16z m-32 -63 c7 -3 -5 -6 -27 -6 -21
0 -34 3 -28 6 7 5 6 8 -3 11 -8 3 0 3 16 0 17 -2 35 -7 42 -11z"/>
<path d="M3980 5961 c-13 -26 -13 -61 1 -61 6 0 9 9 6 20 -3 11 -1 23 4 26 5
3 9 -2 9 -11 0 -9 4 -14 9 -11 5 3 22 -1 37 -9 16 -8 22 -15 15 -15 -13 0 -13
-2 -2 -12 11 -11 14 -10 18 0 3 6 9 10 14 6 5 -3 18 -7 30 -9 16 -3 19 0 14
13 -4 11 -3 14 4 7 6 -6 7 -24 1 -49 -7 -34 -7 -37 6 -25 13 14 17 39 12 81
-1 12 -9 17 -24 16 -15 -2 -20 -7 -16 -18 4 -10 -6 -6 -29 11 -19 14 -42 25
-51 23 -10 -1 -20 6 -23 17 -8 24 -21 24 -35 0z"/>
<path d="M4020 5971 c0 -5 7 -11 15 -15 8 -3 15 -1 15 3 0 5 -7 11 -15 15 -8
3 -15 1 -15 -3z"/>
<path d="M2629 5902 c-15 -17 -14 -50 2 -66 14 -16 10 -30 -5 -17 -11 9 -15 8
-20 -4 -3 -9 -2 -13 4 -10 6 3 10 1 10 -4 0 -26 27 -7 43 29 21 50 21 53 -1
73 -17 15 -19 15 -33 -1z m21 -47 c14 -19 14 -19 -2 -6 -10 7 -18 18 -18 24 0
6 1 8 3 6 1 -2 9 -13 17 -24z"/>
<path d="M3850 5910 c0 -6 -4 -8 -10 -5 -18 11 -10 -4 15 -29 l25 -25 0 29 c0
24 3 28 17 23 11 -4 12 -8 5 -11 -22 -7 -12 -17 18 -17 17 0 30 1 30 2 0 2
-11 10 -24 18 -30 20 -76 29 -76 15z"/>
<path d="M4173 5892 c0 -22 4 -29 10 -23 7 7 7 18 0 33 -9 20 -10 20 -10 -10z"/>
<path d="M3838 5847 c3 -10 10 -21 16 -23 15 -6 12 -62 -4 -77 -12 -10 -12 -9
-2 5 8 9 9 19 4 22 -13 8 -23 -20 -15 -41 4 -11 3 -14 -5 -9 -7 4 -12 2 -12
-4 0 -22 47 -34 82 -19 32 13 32 13 8 19 -18 4 -26 14 -28 33 -2 15 1 27 7 27
6 0 11 9 11 21 0 13 -4 18 -12 13 -7 -5 -9 -2 -5 9 4 11 1 15 -12 12 -14 -2
-17 1 -14 14 3 11 -1 18 -10 18 -9 0 -12 -7 -9 -20z"/>
<path d="M2314 5781 c-26 -12 -41 -25 -41 -37 0 -24 15 -44 33 -44 11 0 12 4
3 19 -17 26 -5 48 33 65 18 8 29 15 23 15 -5 0 -28 -8 -51 -18z"/>
<path d="M4138 5793 c7 -3 16 -2 19 1 4 3 -2 6 -13 5 -11 0 -14 -3 -6 -6z"/>
<path d="M4170 5780 c0 -6 11 -15 25 -20 25 -10 33 -34 15 -45 -6 -3 -13 0
-16 8 -4 12 -11 12 -42 2 -48 -17 -51 -30 -4 -30 79 1 109 31 71 72 -23 24
-49 31 -49 13z"/>
<path d="M2620 5771 c0 -5 7 -16 15 -25 19 -19 19 -30 0 -22 -12 4 -13 2 -2
-14 14 -23 29 -27 21 -5 -4 8 -2 15 4 15 6 0 13 -6 15 -12 3 -8 6 -6 6 5 1 9
-4 17 -10 17 -8 0 -8 4 -1 13 7 8 5 16 -6 27 -14 13 -15 12 -9 -5 7 -19 6 -19
-7 -2 -14 19 -26 22 -26 8z"/>
<path d="M2310 5740 c0 -4 7 -11 16 -14 9 -4 14 -13 10 -21 -3 -9 0 -15 8 -15
8 0 16 -7 20 -15 3 -8 12 -12 20 -9 24 9 5 42 -37 63 -20 10 -37 15 -37 11z"/>
<path d="M3130 5732 c0 -6 -6 -12 -12 -15 -7 -2 -2 -2 11 0 40 7 111 -8 111
-23 0 -16 -26 -19 -35 -4 -3 6 -15 10 -26 10 -10 0 -19 -4 -19 -10 0 -5 -9
-10 -21 -10 -13 0 -18 4 -13 12 4 6 3 8 -4 5 -15 -10 -42 3 -42 19 0 18 -21
18 -45 0 -11 -8 -16 -19 -12 -30 10 -25 29 -19 23 7 -3 12 -3 16 0 10 3 -7 12
-13 20 -13 8 0 14 -5 14 -10 0 -7 65 -10 185 -10 111 1 183 5 180 11 -4 5 4 9
17 9 19 0 20 -2 8 -11 -13 -9 -13 -10 0 -6 18 4 23 27 11 46 -11 18 -351 30
-351 13z m283 -11 c17 -6 16 -8 -6 -20 -13 -7 -33 -11 -43 -8 -13 3 -11 5 9 6
35 1 35 16 0 19 -14 1 -29 4 -31 7 -8 8 50 5 71 -4z"/>
<path d="M2580 5710 c19 -13 30 -13 30 0 0 6 -10 10 -22 10 -19 0 -20 -2 -8
-10z"/>
<path d="M1937 5684 c-4 -4 4 -16 17 -28 13 -12 26 -28 29 -36 4 -10 6 -8 6 6
1 12 -9 29 -21 38 -16 12 -18 16 -5 12 9 -3 17 -1 17 4 0 11 -33 14 -43 4z"/>
<path d="M4520 5671 c-6 -12 -6 -22 -1 -25 11 -7 43 4 53 18 5 7 8 3 8 -9 0
-11 5 -27 10 -35 8 -11 9 -7 4 15 -4 17 -11 36 -17 43 -14 18 -45 15 -57 -7z"/>
<path d="M4040 5659 c0 -31 21 -52 44 -43 9 4 16 1 16 -6 0 -19 27 6 33 30 7
29 -16 44 -35 22 -9 -9 -18 -24 -21 -32 -3 -10 -10 -4 -20 20 -15 33 -16 34
-17 9z"/>
<path d="M2568 5631 c29 -27 55 -43 78 -46 43 -5 45 11 2 21 -18 3 -53 20 -78
36 l-45 30 43 -41z"/>
<path d="M2382 5636 c2 -21 6 -24 33 -20 24 4 26 3 10 -5 -17 -8 -17 -10 -3
-10 17 -1 38 26 38 49 0 8 -6 8 -20 0 -14 -7 -20 -7 -20 0 0 5 -9 10 -20 10
-15 0 -19 -6 -18 -24z"/>
<path d="M3920 5630 c-19 -16 -38 -26 -41 -24 -12 7 -39 -8 -39 -22 0 -8 3
-14 6 -14 11 0 92 51 105 66 22 26 5 23 -31 -6z"/>
<path d="M1817 5630 c-6 -23 27 -70 40 -57 3 4 1 7 -6 7 -9 0 -9 5 0 21 8 15
18 20 35 16 15 -2 30 3 40 14 16 18 16 19 0 19 -11 0 -14 -5 -10 -12 5 -8 2
-9 -12 -4 -10 4 -33 10 -50 13 -26 4 -32 1 -37 -17z"/>
<path d="M4627 5643 c-14 -13 -7 -25 8 -13 12 10 20 9 40 -4 26 -17 34 -9 13
12 -13 13 -50 16 -61 5z"/>
<path d="M2048 5633 c-10 -2 -18 -9 -18 -13 0 -6 10 -6 24 0 13 5 27 6 30 3 3
-4 6 -1 6 5 0 12 -11 13 -42 5z"/>
<path d="M4420 5629 c0 -6 7 -9 15 -6 8 4 17 2 20 -3 4 -6 12 -10 18 -10 16 1
-23 30 -40 30 -7 0 -13 -5 -13 -11z"/>
<path d="M2101 5604 c0 -11 3 -14 6 -6 3 7 2 16 -1 19 -3 4 -6 -2 -5 -13z"/>
<path d="M4400 5605 c0 -12 4 -25 10 -31 5 -5 12 -34 15 -63 6 -61 10 -70 27
-53 9 9 9 12 -2 12 -7 0 -11 3 -7 6 3 3 2 16 -3 29 -7 17 -5 25 6 29 8 3 12
11 8 17 -4 7 -7 24 -6 40 0 20 -3 26 -14 22 -17 -6 -18 -15 -2 -31 6 -6 9 -14
6 -17 -3 -3 -13 9 -21 27 -13 25 -17 28 -17 13z"/>
<path d="M4657 5600 c5 -20 15 -25 26 -14 9 9 -4 34 -18 34 -8 0 -11 -8 -8
-20z"/>
<path d="M2066 5598 c18 -29 10 -82 -8 -57 -7 10 -8 8 -2 -6 4 -11 7 -35 6
-52 -2 -36 18 -45 44 -18 12 11 12 18 3 34 -7 10 -18 17 -26 14 -10 -4 -10 1
1 27 15 37 10 70 -11 70 -9 0 -11 -5 -7 -12z"/>
<path d="M4720 5498 c0 -18 -5 -28 -14 -28 -8 0 -17 -4 -20 -9 -9 -14 32 -1
44 15 8 9 9 18 1 31 -9 16 -10 15 -11 -9z"/>
<path d="M1770 5495 c0 -24 44 -47 75 -39 l27 7 -32 13 c-38 17 -51 18 -30 3
12 -8 11 -9 -5 -7 -12 2 -19 10 -17 21 2 9 -2 17 -8 17 -5 0 -10 -7 -10 -15z"/>
<path d="M4396 5493 c-4 -9 0 -23 9 -32 13 -14 15 -14 15 2 0 10 -4 15 -10 12
-5 -3 -10 -1 -10 4 0 6 5 11 10 11 6 0 10 5 10 10 0 16 -17 11 -24 -7z"/>
<path d="M4683 5490 c-11 -16 -10 -18 1 -14 15 6 30 34 18 34 -4 0 -13 -9 -19
-20z"/>
<path d="M4634 5455 c-3 -8 -3 -19 1 -24 3 -6 0 -8 -9 -5 -21 8 -43 -35 -25
-47 29 -18 39 -7 44 51 4 41 -1 52 -11 25z m-7 -61 c-3 -3 -12 -4 -19 -1 -8 3
-5 6 6 6 11 1 17 -2 13 -5z"/>
<path d="M1856 5423 c15 -63 48 -69 70 -13 11 28 11 31 0 18 -7 -10 -16 -15
-19 -11 -4 3 -13 0 -22 -7 -10 -8 -15 -9 -15 -1 0 6 4 11 10 11 5 0 7 7 4 15
-4 8 -12 15 -20 15 -11 0 -13 -7 -8 -27z"/>
<path d="M2004 5413 c16 -18 32 -31 34 -28 3 3 3 6 1 8 -2 1 -17 13 -34 27
l-30 25 29 -32z"/>
<path d="M1571 5374 c-11 -15 -18 -31 -15 -38 3 -6 0 -4 -8 5 -7 9 -24 15 -38
14 -36 -2 -37 -35 -3 -65 15 -14 21 -17 14 -8 -7 10 -11 23 -9 30 3 7 -2 19
-11 26 -14 10 -13 11 4 5 11 -3 26 -11 33 -16 8 -7 18 -5 31 7 10 9 28 15 41
14 29 -4 36 15 15 36 -22 22 -30 20 -54 -10z m9 -16 c-13 -13 -19 -16 -15 -8
14 25 28 41 32 36 3 -3 -5 -15 -17 -28z"/>
<path d="M4433 5383 c-35 -18 -43 -33 -18 -33 8 0 15 5 15 11 0 5 4 8 8 5 4
-2 19 4 32 15 31 23 8 24 -37 2z"/>
<path d="M4890 5390 c0 -6 7 -10 16 -8 10 2 19 -3 21 -10 3 -7 -1 -10 -11 -6
-9 3 -16 2 -16 -4 0 -5 7 -12 15 -16 8 -3 15 -1 15 4 0 6 4 10 9 10 5 0 7 -9
4 -20 -6 -23 -4 -24 31 -10 22 8 26 7 26 -10 0 -10 -7 -26 -16 -34 -8 -9 -11
-16 -6 -16 4 0 19 11 32 26 21 21 22 27 10 34 -11 7 -12 10 -2 10 7 0 10 5 7
10 -3 6 -21 10 -39 10 -20 0 -40 8 -51 20 -19 21 -45 27 -45 10z"/>
<path d="M2051 5383 c-1 -15 36 -36 52 -29 8 3 6 5 -3 5 -13 1 -13 2 0 12 12
8 9 9 -12 5 -16 -4 -28 -1 -31 7 -4 9 -6 9 -6 0z"/>
<path d="M3050 5374 c-416 -50 -781 -199 -1094 -447 -356 -283 -608 -672 -722
-1114 -104 -409 -82 -852 62 -1242 255 -684 843 -1187 1551 -1325 462 -90 902
-32 1330 175 408 198 739 527 944 939 110 220 181 459 210 704 15 128 6 451
-15 571 -147 811 -709 1440 -1490 1666 -180 53 -311 71 -536 74 -113 2 -221 1
-240 -1z m457 -69 c470 -61 887 -271 1214 -613 272 -284 452 -631 531 -1025
29 -150 37 -492 13 -653 -111 -773 -641 -1406 -1378 -1649 -334 -110 -691
-130 -1045 -59 -699 140 -1293 670 -1516 1354 -24 74 -54 189 -67 255 -22 109
-24 145 -23 385 0 248 2 273 27 393 65 307 196 595 386 842 62 82 220 244 311
320 114 95 262 191 395 256 234 114 423 167 720 202 82 10 327 5 432 -8z"/>
<path d="M3288 4673 c-10 -2 -18 -9 -18 -15 0 -5 7 -7 16 -4 9 3 20 6 25 6 5
0 9 5 9 10 0 10 -3 11 -32 3z"/>
<path d="M3330 4674 c0 -4 7 -16 16 -25 12 -13 17 -42 20 -101 2 -57 0 -77 -7
-63 -7 16 -8 12 -6 -17 2 -20 0 -35 -4 -33 -3 3 -14 -20 -24 -51 -16 -50 -16
-57 -2 -71 13 -14 17 -13 36 6 12 12 24 21 28 21 4 0 2 -5 -4 -11 -11 -11 -6
-56 8 -65 5 -3 9 -17 9 -31 0 -22 -5 -19 -46 32 -26 31 -50 53 -54 48 -16 -16
-22 -61 -9 -69 9 -5 10 -2 6 10 -5 12 -3 16 5 13 7 -2 12 -15 11 -28 -1 -13 0
-19 3 -13 4 9 13 8 34 -3 31 -15 48 -33 31 -33 -5 0 -13 5 -16 10 -3 6 -11 10
-17 10 -6 0 8 -18 31 -40 40 -39 50 -66 32 -86 -11 -12 -32 -76 -23 -70 5 3 7
-7 7 -22 -1 -15 3 -36 8 -47 8 -17 6 -16 -13 4 -19 19 -20 25 -9 32 8 5 10 9
4 9 -19 -1 -51 -32 -37 -37 20 -8 14 -23 -10 -23 -19 0 -20 -2 -8 -10 8 -5 10
-10 4 -10 -6 0 -17 7 -25 16 -10 13 -10 17 2 25 12 7 11 9 -3 9 -9 0 -28 11
-41 24 -56 56 -100 91 -89 71 6 -12 22 -27 36 -35 14 -7 26 -17 26 -22 0 -12
-18 -10 -25 3 -4 6 -14 8 -22 5 -8 -3 -11 -1 -8 4 3 5 -2 20 -11 32 l-17 23
-32 -31 c-18 -17 -58 -41 -89 -54 -48 -19 -55 -25 -44 -38 11 -13 8 -14 -20
-8 -17 4 -32 4 -32 -1 0 -16 -54 -8 -72 10 -19 18 -22 34 -7 29 5 -1 12 6 16
15 4 10 11 21 17 25 8 5 7 8 -1 8 -13 0 -63 -46 -63 -59 0 -5 -16 -25 -35 -45
-19 -21 -35 -31 -35 -23 0 14 -47 16 -80 3 -29 -11 -90 -13 -83 -3 4 7 -6 8
-27 4 -18 -4 -40 -7 -50 -7 -10 0 -28 -9 -41 -19 l-24 -20 25 -10 c14 -5 18
-10 10 -10 -9 -1 -21 4 -28 11 -9 10 -16 8 -29 -5 -11 -11 -13 -17 -5 -17 7 0
12 -4 12 -10 0 -5 -12 -9 -27 -9 -43 2 -64 9 -58 20 4 5 -1 9 -9 9 -9 0 -16 5
-16 11 0 5 5 7 10 4 6 -3 10 -2 10 3 0 6 -7 12 -15 16 -10 3 -15 -1 -15 -12 0
-13 -2 -14 -9 -3 -5 7 -14 10 -20 7 -6 -4 -9 -12 -6 -17 4 -5 1 -9 -5 -9 -7 0
-10 -6 -7 -12 2 -7 11 -12 18 -10 9 2 8 -3 -4 -16 -21 -22 -23 -39 -3 -23 12
10 13 9 9 -8 -3 -13 2 -24 16 -33 12 -7 21 -18 21 -25 0 -7 15 -23 33 -37 36
-27 53 -33 41 -15 -4 8 0 9 15 4 14 -4 21 -2 21 7 1 7 9 3 21 -11 12 -15 31
-24 50 -25 24 -1 31 -7 38 -31 10 -39 6 -45 -25 -39 -14 3 -32 0 -40 -7 -12
-9 -14 -4 -12 30 1 23 -4 47 -10 53 -16 16 -28 2 -13 -16 7 -9 9 -29 5 -54 -5
-35 -11 -42 -35 -47 -20 -5 -26 -11 -23 -23 4 -13 1 -11 -14 5 -12 13 -24 18
-32 13 -9 -6 -7 -11 9 -19 13 -7 21 -22 22 -39 0 -26 1 -26 9 -4 5 12 14 22
20 22 6 0 15 10 20 23 l9 22 0 -22 c1 -37 -9 -55 -25 -42 -11 9 -14 6 -14 -19
0 -25 -3 -30 -17 -25 -11 4 -14 3 -9 -5 4 -6 -5 -5 -21 3 -15 8 -33 15 -39 15
-6 0 -17 7 -24 15 -7 8 -20 15 -29 14 -12 0 -11 -2 4 -9 15 -7 8 -9 -27 -8
-26 1 -45 5 -42 10 3 4 0 8 -7 8 -7 0 -10 2 -7 5 3 3 17 1 32 -4 14 -6 26 -7
26 -2 0 5 -14 14 -31 20 -27 9 -33 8 -50 -12 -10 -12 -18 -25 -19 -29 0 -13
18 -9 23 5 3 7 6 4 6 -7 1 -13 6 -16 19 -12 16 6 16 5 -1 -8 -17 -13 -17 -14
0 -19 10 -2 27 -8 38 -12 14 -5 16 -4 7 2 -9 7 -4 10 18 10 28 0 29 -2 15 -17
-14 -16 -14 -18 0 -24 9 -3 20 -4 23 -2 4 2 7 -13 7 -34 0 -26 -4 -36 -13 -33
-10 4 -10 -1 -2 -22 6 -15 8 -30 5 -33 -3 -3 -5 1 -5 9 0 12 -2 12 -10 -1 -5
-8 -12 -11 -16 -7 -4 3 -1 13 5 21 11 13 7 19 -20 35 -18 11 -36 18 -41 15 -4
-3 -8 0 -8 6 0 6 -5 8 -11 5 -14 -9 -81 4 -74 14 3 5 -2 12 -11 15 -24 9 -28
7 -15 -7 6 -8 8 -17 4 -20 -3 -4 0 -13 7 -22 9 -11 9 -15 1 -15 -7 0 -10 -4
-6 -10 3 -5 -7 -3 -22 5 -33 18 -49 6 -33 -25 6 -12 9 -24 7 -27 -3 -2 -8 5
-12 16 -3 12 -11 19 -16 15 -6 -4 -6 -11 2 -20 6 -8 9 -18 5 -21 -4 -4 -11 -1
-16 7 -6 9 -10 10 -10 3 0 -6 5 -15 10 -18 6 -3 10 -12 9 -18 0 -9 -2 -9 -6 1
-2 6 -9 12 -14 12 -13 0 -10 -31 6 -60 l14 -25 9 24 c9 24 9 24 14 3 4 -15 2
-22 -9 -22 -9 0 -11 -5 -7 -12 6 -10 4 -10 -7 -2 -14 11 -59 2 -59 -12 0 -3 7
-3 16 0 14 5 15 4 4 -8 -11 -14 -14 -14 -27 0 -18 17 -45 2 -37 -21 3 -7 -4
-19 -16 -25 -16 -9 -20 -18 -16 -36 4 -14 2 -24 -4 -24 -6 0 -8 6 -4 13 4 6
-3 2 -15 -10 -12 -13 -31 -23 -42 -23 -17 0 -20 -4 -15 -24 4 -15 0 -29 -13
-40 -20 -18 -51 -12 -51 10 0 17 17 18 23 2 3 -10 8 -10 16 -2 19 17 -14 41
-34 24 -8 -7 -15 -19 -15 -27 0 -8 -4 -12 -9 -9 -4 3 -7 -10 -5 -29 2 -36 -17
-62 -37 -49 -8 4 -9 3 -5 -4 4 -7 2 -12 -3 -12 -6 0 -11 -6 -11 -14 0 -8 -5
-18 -11 -22 -8 -4 -9 4 -4 27 7 30 6 32 -8 21 -9 -7 -16 -21 -15 -30 0 -9 -3
-27 -7 -39 -5 -14 -3 -23 4 -23 5 0 8 8 5 18 -4 13 -3 14 4 4 6 -9 5 -26 -4
-50 -15 -43 -18 -78 -3 -47 8 17 9 15 5 -10 -4 -28 -3 -29 11 -10 14 19 15 19
13 -5 -4 -45 0 -58 18 -63 9 -2 26 -8 36 -13 12 -4 17 -4 13 2 -3 6 10 10 34
10 25 -1 39 -6 39 -14 0 -10 -9 -12 -32 -8 -27 5 -29 4 -11 -4 32 -13 283 -4
378 14 44 9 81 16 82 16 9 0 -4 57 -15 65 -10 8 -9 11 8 12 11 1 18 -2 15 -8
-13 -20 46 -7 71 16 29 27 39 32 28 14 -4 -8 0 -9 15 -4 13 4 21 2 21 -5 0 -6
4 -9 9 -6 5 4 11 1 13 -5 3 -9 9 -9 26 0 13 7 22 8 22 2 0 -18 104 23 142 56
10 9 24 13 33 10 9 -4 15 -1 15 8 0 8 13 22 29 31 17 10 28 21 25 26 -3 4 3 5
12 1 13 -5 15 -3 9 8 -4 8 -5 11 -1 7 4 -3 25 0 46 7 21 7 40 11 43 9 3 -3 4
3 4 12 -1 11 6 20 18 22 16 2 17 1 5 -7 -8 -5 -12 -13 -8 -16 3 -3 18 5 33 19
15 14 32 23 38 19 6 -3 7 -1 3 5 -4 7 -3 12 2 12 4 0 24 14 42 30 18 17 36 30
40 30 3 0 15 17 25 38 17 33 19 35 23 14 3 -20 5 -20 18 -7 9 8 20 15 25 15
15 0 10 -17 -7 -24 -9 -4 -14 -9 -12 -12 3 -3 34 11 69 31 35 20 56 34 45 31
-12 -4 -17 -2 -13 6 2 7 -6 21 -19 31 -13 10 -24 13 -24 7 0 -5 -5 -10 -11
-10 -6 0 -8 7 -5 16 4 12 2 15 -9 10 -9 -3 -15 0 -15 9 0 8 5 15 10 15 6 0 10
6 10 13 0 6 4 18 9 26 8 12 13 12 34 -2 23 -15 26 -15 41 2 9 10 14 20 11 23
-3 3 4 13 14 22 19 17 20 17 37 -3 10 -11 19 -27 20 -35 2 -13 -1 -13 -22 2
-13 10 -21 23 -18 32 3 8 2 11 -2 7 -4 -4 -14 -24 -21 -45 -12 -34 -11 -38 8
-54 11 -9 27 -14 36 -11 12 5 15 2 10 -10 -6 -16 6 -30 28 -33 6 0 16 -2 22
-2 7 -1 12 -12 10 -23 -1 -12 5 -24 13 -27 13 -5 13 -3 1 11 -7 10 -9 17 -3
17 5 0 16 -7 23 -17 11 -12 11 -17 2 -20 -9 -3 -8 -11 4 -29 10 -16 22 -23 33
-19 10 3 20 0 23 -9 4 -11 1 -13 -11 -9 -15 6 -15 4 -4 -10 8 -8 20 -13 28
-10 17 6 18 15 4 29 -8 8 -7 14 3 22 11 10 14 5 13 -28 0 -22 -4 -40 -9 -40
-4 0 -5 -5 -2 -11 5 -7 15 -5 31 6 22 14 25 14 44 -2 11 -10 20 -23 20 -30 0
-8 -8 -5 -20 7 -22 22 -29 24 -49 11 -11 -7 -8 -15 16 -41 17 -19 36 -30 42
-26 6 4 9 11 6 15 -2 5 8 6 23 3 30 -5 61 -38 62 -64 0 -10 8 -18 18 -19 15 0
14 -1 -3 -8 -18 -7 -18 -9 8 -26 28 -18 53 -12 27 6 -12 9 -12 10 3 5 10 -3
26 -6 35 -7 13 0 12 -3 -5 -11 -20 -10 -29 -48 -11 -48 4 0 8 -5 8 -11 0 -5
-4 -7 -10 -4 -5 3 -10 1 -10 -5 0 -14 48 -32 70 -25 13 4 17 1 16 -12 0 -11 5
-17 13 -15 26 6 61 -8 61 -23 0 -8 5 -15 10 -15 6 0 10 9 10 20 0 13 5 18 15
14 10 -4 13 -13 10 -24 -4 -14 2 -19 31 -24 20 -4 39 -5 42 -2 3 3 -4 6 -16 6
-12 0 -22 5 -22 10 0 9 27 7 68 -6 6 -2 12 1 12 5 0 5 -6 12 -12 14 -7 3 -2 6
11 6 16 1 21 -3 18 -13 -3 -7 0 -19 6 -25 8 -8 2 -8 -21 -2 -18 5 -32 6 -32 1
0 -8 71 -28 100 -28 8 0 47 -5 85 -11 89 -14 259 -18 350 -8 127 14 157 19
145 27 -8 5 -7 9 5 14 24 9 37 7 30 -4 -8 -12 0 -13 23 -1 9 5 32 13 51 18
l35 8 -29 19 c-22 15 -32 16 -47 7 -23 -14 -41 -14 -32 1 5 8 -3 10 -27 6 -19
-3 -45 -2 -59 3 -16 4 2 7 54 8 77 1 142 -13 159 -34 5 -6 7 -3 3 8 -3 9 -1
17 4 17 6 0 10 -5 10 -11 0 -8 4 -8 14 0 8 7 12 21 9 31 -3 11 0 20 6 20 5 0
8 -7 5 -15 -8 -21 3 -19 28 5 l22 20 -22 0 c-17 0 -22 6 -22 25 0 19 4 23 17
18 9 -4 14 -2 11 3 -3 5 0 15 8 22 18 17 18 1 -1 -24 -8 -10 -14 -23 -15 -29
0 -5 5 -3 10 5 9 13 11 13 21 0 7 -11 9 6 7 62 l-3 77 -48 46 c-36 36 -51 44
-63 37 -22 -12 -76 8 -70 25 5 13 -11 18 -49 15 -16 -2 -17 0 -5 8 8 5 26 7
40 4 24 -4 24 -4 2 5 -12 6 -29 8 -37 5 -9 -4 -15 0 -15 9 0 8 -14 20 -31 26
-39 13 -42 14 -34 1 3 -5 15 -10 26 -10 12 0 19 -7 19 -19 0 -19 -28 -37 -39
-25 -3 4 0 9 7 11 19 7 14 23 -7 23 -23 0 -51 29 -30 31 8 1 3 4 -11 9 -14 4
-36 6 -50 4 -24 -4 -25 -4 -2 5 12 6 30 8 40 4 9 -3 13 -2 9 3 -4 4 -22 8 -39
9 -19 0 -33 6 -36 15 -5 13 -3 13 11 1 10 -7 17 -9 17 -3 0 16 -58 33 -64 19
-3 -9 -5 -9 -5 1 -1 6 -6 12 -12 12 -5 0 -7 -4 -4 -10 3 -5 -1 -10 -9 -10 -9
0 -16 4 -16 9 0 5 -3 18 -6 28 -5 15 -4 15 5 3 15 -21 27 -3 13 20 -7 11 -12
23 -12 26 0 9 38 -34 43 -49 2 -7 7 -9 11 -6 3 3 -6 21 -21 40 -26 32 -40 38
-85 42 -10 1 -18 5 -18 9 0 10 33 10 46 1 5 -5 -1 2 -13 15 -27 27 -32 27 -63
5 l-24 -17 24 -8 c20 -6 19 -7 -7 -3 -19 3 -33 0 -33 -6 0 -6 -4 -7 -10 -4 -5
3 -11 1 -11 -4 -1 -6 -2 -15 -3 -20 0 -5 -5 -13 -10 -18 -5 -5 -6 -3 -2 5 8
14 -10 17 -19 2 -3 -5 -19 -10 -35 -10 -24 0 -29 5 -32 28 -5 41 -21 33 -31
-15 -4 -24 -12 -43 -18 -43 -5 0 -9 4 -9 9 0 5 -3 18 -6 28 -5 15 -4 15 5 3 8
-12 11 -8 11 18 0 20 5 32 13 32 9 0 13 12 13 34 -1 27 -4 32 -14 24 -7 -6
-11 -16 -9 -22 4 -13 -17 -36 -33 -36 -6 0 -4 7 5 17 16 16 16 17 -4 25 -28
10 -27 43 2 72 47 47 18 104 -33 65 -14 -10 -20 -19 -14 -19 5 0 15 5 21 11 7
7 12 6 16 -5 4 -10 1 -13 -7 -10 -7 3 -18 -2 -25 -10 -11 -13 -17 -14 -46 -2
-18 8 -36 12 -39 8 -11 -10 -6 8 9 37 8 16 11 32 7 36 -4 5 -1 5 7 0 9 -5 18
-2 25 7 6 8 21 20 34 27 12 6 22 17 22 23 0 6 -10 3 -21 -8 -22 -19 -22 -19
-10 4 6 12 16 22 22 22 6 0 7 5 4 10 -4 6 -11 8 -16 5 -5 -4 -9 -1 -9 4 0 6 6
11 13 11 17 0 43 43 28 48 -6 2 -11 8 -11 13 0 6 10 3 22 -5 12 -9 30 -16 39
-16 9 0 28 -9 43 -21 14 -11 26 -17 26 -13 0 4 7 -1 16 -12 8 -10 12 -13 8 -5
-5 11 -3 13 11 7 15 -5 16 -4 5 9 -19 23 -55 41 -45 23 3 -7 0 -4 -9 6 -8 10
-17 24 -19 30 -3 8 -12 7 -28 -3 -22 -13 -23 -13 -10 2 12 15 9 17 -30 14 -27
-1 -43 -7 -42 -14 3 -15 -35 -12 -41 3 -3 7 4 14 15 17 27 7 36 37 14 49 -14
8 -15 12 -4 19 19 12 29 11 26 -3 -1 -6 7 -13 18 -15 16 -3 17 -2 5 6 -13 9
-13 11 3 11 9 0 17 -5 17 -11 0 -6 7 -8 16 -5 8 3 12 2 9 -4 -3 -5 8 -16 24
-25 37 -19 107 -20 114 -2 11 29 -12 40 -97 47 -48 4 -92 12 -98 18 -8 8 -19
5 -42 -11 -17 -12 -37 -21 -43 -19 -7 2 -13 -2 -13 -8 0 -6 5 -8 10 -5 6 4 10
-6 11 -22 0 -15 2 -38 5 -50 5 -27 -1 -28 -41 -7 -16 8 -43 16 -58 16 -15 1
-30 5 -33 10 -13 20 -150 1 -165 -24 -8 -11 -11 -11 -18 1 -6 9 -14 10 -27 3
-11 -5 -39 -13 -64 -17 -25 -4 -47 -11 -50 -15 -9 -14 -80 -24 -80 -11 0 6
-13 11 -29 11 -16 0 -43 3 -61 6 -25 5 -31 11 -27 25 3 11 1 17 -4 13 -5 -3
-9 -12 -9 -20 0 -8 -5 -14 -11 -14 -7 0 -9 10 -5 26 4 14 3 23 -1 21 -4 -3 -9
8 -10 24 -1 15 2 31 7 34 6 3 7 -1 4 -9 -3 -9 -2 -16 4 -16 5 0 13 7 16 16 4
9 9 14 12 11 3 -3 -2 -17 -11 -31 -17 -26 -17 -26 6 -23 15 3 23 11 24 25 1
12 5 25 10 29 4 5 5 0 2 -9 -10 -29 -2 -21 44 40 61 82 111 132 122 125 6 -4
8 0 4 10 -3 9 -2 19 4 23 6 4 6 11 -2 20 -17 21 -5 27 53 31 49 3 50 2 35 -15
-10 -10 -17 -24 -17 -31 0 -6 -11 -23 -25 -36 -16 -14 -22 -26 -16 -30 6 -3
20 -37 32 -75 19 -64 33 -80 51 -55 4 5 10 6 15 2 9 -10 -11 -43 -25 -40 -5 1
-8 -7 -5 -18 5 -16 8 -18 14 -7 5 7 9 9 9 3 0 -5 5 -2 11 8 5 9 16 17 23 17
18 0 82 72 78 88 -2 8 1 11 8 7 12 -7 50 21 50 37 0 5 11 21 25 36 25 27 33
66 16 76 -5 4 -12 0 -15 -6 -3 -7 -3 -2 1 12 9 31 8 64 -2 88 -5 9 -9 22 -10
27 -9 62 -18 82 -35 78 -10 -3 -21 -17 -25 -31 -4 -16 -10 -21 -12 -14 -4 10
-9 8 -19 -6 -15 -22 -8 -62 11 -62 8 0 11 -8 8 -19 -4 -15 2 -21 26 -26 36 -8
39 -24 11 -50 -11 -10 -17 -22 -13 -28 3 -6 1 -7 -5 -3 -7 4 -12 1 -12 -8 0
-9 3 -16 8 -16 4 0 13 -9 19 -19 9 -15 9 -23 -2 -37 -12 -17 -13 -16 -8 10 4
20 2 27 -6 22 -6 -4 -11 -14 -11 -22 0 -8 -7 -17 -15 -20 -8 -4 -12 -11 -8
-17 3 -6 1 -7 -5 -3 -17 10 -15 26 3 26 11 0 15 11 15 43 0 24 4 47 9 52 4 6
11 22 15 38 5 21 3 27 -10 27 -9 0 -18 9 -21 20 -3 11 -14 20 -24 20 -13 0
-17 5 -12 18 5 14 3 15 -7 5 -11 -10 -17 -10 -29 0 -9 8 -12 8 -8 1 4 -7 0
-17 -9 -24 -13 -11 -14 -9 -10 21 2 19 7 44 9 55 4 16 1 21 -11 20 -12 -1 -16
5 -14 19 2 11 4 25 4 31 1 6 7 11 13 11 7 0 10 -8 7 -19 -2 -10 1 -18 7 -18 6
0 12 10 12 23 1 16 2 18 6 5 2 -10 9 -18 14 -18 6 0 3 -7 -5 -16 -9 -8 -16
-20 -16 -26 0 -6 8 0 18 12 10 13 17 38 17 61 0 21 4 39 8 39 5 0 7 -13 4 -30
-4 -16 -4 -30 -2 -30 2 0 11 14 20 30 9 17 13 30 9 30 -4 0 -1 7 6 15 14 17 6
115 -11 126 -5 3 -12 18 -15 33 -2 15 -29 65 -59 112 -52 80 -72 103 -58 67 4
-11 3 -14 -5 -9 -7 4 -12 18 -12 30 0 24 -79 116 -99 116 -5 0 -8 -12 -5 -26
4 -24 3 -25 -11 -11 -8 9 -15 23 -15 31 0 9 -4 16 -10 16 -13 0 -13 47 0 52 5
2 -5 13 -23 25 -39 26 -67 38 -67 27z m66 -48 c6 -26 -1 -46 -17 -46 -5 0 -9
5 -9 11 0 5 5 7 10 4 14 -9 12 29 -2 43 -9 9 -9 12 0 12 6 0 14 -11 18 -24z
m-5 -107 c-5 -13 -10 -19 -10 -12 -1 15 10 45 15 40 3 -2 0 -15 -5 -28z m32
-29 c4 -15 0 -20 -14 -20 -21 0 -22 1 -13 24 8 22 21 20 27 -4z m97 -12 c0
-12 -28 -9 -36 3 -3 6 0 15 7 20 13 7 28 -5 29 -23z m-120 -59 c0 -17 -4 -28
-10 -24 -5 3 -10 17 -10 31 0 13 5 24 10 24 6 0 10 -14 10 -31z m210 -43 c0
-8 7 -19 15 -26 9 -7 13 -15 10 -18 -7 -8 -45 38 -45 55 0 8 5 11 10 8 6 -3
10 -12 10 -19z m-16 -42 c3 -9 6 -17 6 -18 0 -1 -9 -2 -20 -3 -11 -1 -20 0
-20 2 0 11 13 35 20 35 4 0 11 -7 14 -16z m52 -40 c-11 -8 -15 -18 -10 -26 6
-10 4 -10 -9 1 -9 7 -17 21 -17 30 0 14 2 14 10 1 8 -12 10 -12 16 3 3 9 11
14 17 10 6 -4 3 -11 -7 -19z m34 -39 c0 -5 -5 -3 -10 5 -5 8 -10 20 -10 25 0
6 5 3 10 -5 5 -8 10 -19 10 -25z m-22 -65 c-15 -24 -22 -19 -13 9 3 12 11 19
16 16 5 -4 3 -14 -3 -25z m34 -2 c-7 -7 -12 -20 -12 -30 0 -10 -5 -15 -13 -12
-12 4 -11 11 2 39 10 20 20 30 26 24 5 -6 5 -13 -3 -21z m14 -35 c-10 -10 -19
5 -10 18 6 11 8 11 12 0 2 -7 1 -15 -2 -18z m-265 -47 c3 -26 0 -42 -6 -40
-11 5 -14 84 -4 84 4 0 9 -20 10 -44z m29 -3 c0 -7 -4 -13 -10 -13 -5 0 -10
12 -10 28 0 21 2 24 10 12 5 -8 10 -21 10 -27z m67 -35 c-3 -8 -6 -5 -6 6 -1
11 2 17 5 13 3 -3 4 -12 1 -19z m83 -12 c0 -2 -7 -7 -16 -10 -8 -3 -12 -2 -9
4 6 10 25 14 25 6z m-155 -24 c-3 -3 -11 0 -18 7 -9 10 -8 11 6 5 10 -3 15 -9
12 -12z m-325 -12 c-8 -5 -11 -12 -7 -16 3 -4 15 -1 24 7 17 12 17 12 1 -6
-13 -14 -21 -16 -29 -8 -13 13 -4 33 14 33 7 0 6 -4 -3 -10z m150 -66 c0 -2
-7 -4 -15 -4 -8 0 -15 4 -15 10 0 5 7 7 15 4 8 -4 15 -8 15 -10z m500 -38 c0
-5 -7 -3 -15 4 -8 7 -15 22 -15 34 1 20 2 20 15 -4 8 -14 14 -29 15 -34z m-49
-7 c-19 -8 -31 -2 -31 14 0 8 3 8 9 -1 6 -10 10 -6 16 15 l8 28 7 -25 c4 -18
2 -27 -9 -31z m-881 10 c0 -4 -8 -7 -19 -6 -12 1 -17 7 -13 19 3 14 7 16 18 7
8 -6 14 -15 14 -20z m725 11 c-1 -11 -7 -26 -13 -32 -9 -9 -12 -6 -12 14 0 15
6 29 13 31 6 3 12 6 13 6 0 1 0 -8 -1 -19z m-295 -10 c12 -7 10 -9 -8 -7 -12
0 -22 5 -22 9 0 11 12 10 30 -2z m-210 -29 c0 -15 -7 -19 -28 -19 -18 1 -29 6
-29 15 0 8 6 12 12 9 7 -2 18 0 26 5 19 12 19 12 19 -10z m200 -16 c0 -2 -7
-1 -17 2 -12 5 -14 3 -8 -7 5 -9 4 -11 -3 -6 -7 4 -12 14 -12 22 0 12 4 12 20
4 11 -6 20 -13 20 -15z m116 -12 c-11 -11 -19 6 -11 24 8 17 8 17 12 0 3 -10
2 -21 -1 -24z m-884 -5 c-6 -6 -15 -8 -19 -4 -4 4 -1 11 7 16 19 12 27 3 12
-12z m823 12 c-3 -5 -12 -10 -18 -10 -7 0 -6 4 3 10 19 12 23 12 15 0z m-507
-23 c6 3 12 1 12 -4 0 -5 -11 -9 -25 -9 -13 0 -22 2 -20 5 3 2 -1 11 -7 20
-11 14 -10 14 7 0 11 -9 26 -14 33 -12z m825 3 c3 -11 1 -20 -4 -20 -5 0 -9 9
-9 20 0 11 2 20 4 20 2 0 6 -9 9 -20z m-996 -4 c50 -2 39 -16 -12 -16 -25 0
-45 5 -45 10 0 6 -7 10 -15 10 -8 0 -15 -4 -15 -10 0 -5 -8 -10 -17 -9 -11 0
-13 3 -5 6 6 2 9 10 6 15 -5 8 5 9 32 4 21 -5 54 -9 71 -10z m1033 4 c0 -5 -4
-10 -10 -10 -5 0 -10 5 -10 10 0 6 5 10 10 10 6 0 10 -4 10 -10z m-233 -64
c-4 -9 -10 -16 -16 -16 -10 0 -21 47 -13 55 11 10 35 -23 29 -39z m-1047 -6
c0 -4 -7 -13 -15 -20 -12 -10 -15 -9 -15 5 0 11 -5 15 -15 11 -14 -5 -21 5
-10 16 8 7 55 -3 55 -12z m-95 -30 c3 -5 1 -10 -4 -10 -6 0 -11 5 -11 10 0 6
2 10 4 10 3 0 8 -4 11 -10z m1129 1 c3 -4 -4 -17 -15 -27 -21 -19 -21 -18 -8
9 13 30 15 31 23 18z m353 -28 c-9 -9 -19 -14 -22 -11 -3 3 2 13 11 22 9 9 19
14 22 11 3 -3 -2 -13 -11 -22z m-1377 -43 c0 -5 -5 -10 -11 -10 -5 0 -7 5 -4
10 3 6 8 10 11 10 2 0 4 -4 4 -10z m77 -16 c-3 -3 -12 -4 -19 -1 -8 3 -5 6 6
6 11 1 17 -2 13 -5z m763 -3 c0 -6 -4 -13 -10 -16 -5 -3 -10 1 -10 9 0 9 5 16
10 16 6 0 10 -4 10 -9z m105 -11 c3 -6 -1 -13 -9 -16 -9 -3 -16 -12 -16 -20 0
-8 -4 -14 -10 -14 -5 0 -10 5 -10 11 0 8 -4 8 -15 -1 -8 -6 -19 -9 -25 -5 -18
11 -11 25 15 25 14 0 25 5 25 11 0 5 5 7 10 4 6 -3 10 -1 10 4 0 14 17 14 25
1z m315 6 c0 -2 -7 -9 -15 -16 -12 -10 -15 -10 -15 4 0 9 7 16 15 16 8 0 15
-2 15 -4z m-70 -33 c0 -8 -5 -13 -12 -11 -18 6 -21 25 -3 25 8 0 15 -7 15 -14z
m74 -24 c-3 -5 -10 -7 -15 -3 -5 3 -7 10 -3 15 3 5 10 7 15 3 5 -3 7 -10 3
-15z m276 -29 c0 -5 -4 -10 -10 -10 -5 0 -10 5 -10 10 0 6 5 10 10 10 6 0 10
-4 10 -10z m160 -6 l25 -15 -25 7 c-14 3 -29 10 -34 15 -16 14 6 10 34 -7z
m77 0 c-3 -3 -12 -4 -19 -1 -8 3 -5 6 6 6 11 1 17 -2 13 -5z m-1691 -51 c-10
-10 -19 5 -10 18 6 11 8 11 12 0 2 -7 1 -15 -2 -18z m1494 -34 c0 -4 -11 -9
-24 -11 -15 -3 -23 -1 -20 6 5 12 44 16 44 5z m-415 -9 c-16 -4 -41 -8 -55 -8
-23 -1 -23 0 -5 8 11 5 36 8 55 8 l35 0 -30 -8z m330 0 c-3 -5 -12 -7 -20 -3
-21 7 -19 13 6 13 11 0 18 -4 14 -10z m-580 -29 c-6 -5 -25 10 -25 20 0 5 6 4
14 -3 8 -7 12 -15 11 -17z m-62 4 c-10 -7 -21 -11 -25 -9 -16 10 -7 19 18 20
23 2 24 1 7 -11z m304 -3 c-9 -2 -15 -8 -12 -13 3 -5 -1 -6 -10 -3 -12 5 -13
10 -5 20 7 7 19 10 28 6 16 -6 16 -7 -1 -10z m-94 1 c-7 -2 -19 -2 -25 0 -7 3
-2 5 12 5 14 0 19 -2 13 -5z m455 -15 c-3 -25 -28 -37 -28 -14 0 8 -8 20 -17
25 -15 9 -12 10 15 11 29 0 33 -3 30 -22z m-604 -13 c-5 -11 -11 -12 -25 -4
-25 13 -24 14 6 17 18 1 23 -2 19 -13z m316 1 c0 -2 -11 -6 -25 -8 -13 -3 -22
-1 -19 3 5 9 44 13 44 5z m-91 -32 c2 -2 -15 -3 -38 -2 -23 1 -44 5 -47 9 -5
8 77 1 85 -7z m88 0 c-3 -3 -12 -4 -19 -1 -8 3 -5 6 6 6 11 1 17 -2 13 -5z
m-1207 -19 c0 -8 -4 -15 -10 -15 -5 0 -10 7 -10 15 0 8 5 15 10 15 6 0 10 -7
10 -15z m1000 5 c0 -5 -7 -10 -16 -10 -8 0 -12 5 -9 10 3 6 10 10 16 10 5 0 9
-4 9 -10z m-1097 -17 c-2 -7 2 -13 7 -13 6 0 10 -5 10 -12 0 -6 -3 -8 -7 -5
-3 4 -13 1 -21 -6 -13 -10 -14 -8 -7 12 4 13 3 21 -2 18 -4 -3 -17 1 -28 10
-19 13 -18 14 15 11 21 -2 34 -8 33 -15z m1550 -18 c4 -8 2 -17 -3 -20 -6 -4
-10 3 -10 14 0 25 6 27 13 6z m-1533 -46 c0 -4 -7 -9 -15 -13 -9 -3 -15 0 -15
8 0 7 7 13 15 13 8 0 15 -4 15 -8z m-200 -9 c-8 -5 -22 -10 -30 -10 -13 0 -13
1 0 10 8 5 22 10 30 10 13 0 13 -1 0 -10z m1850 -28 c0 -10 -22 -32 -32 -32
-5 0 -3 9 4 20 13 20 28 27 28 12z m-1593 -24 c-3 -8 -6 -5 -6 6 -1 11 2 17 5
13 3 -3 4 -12 1 -19z m-193 -13 c-18 -28 -44 -33 -44 -10 0 14 12 19 33 16 4
0 7 4 7 9 0 6 5 10 10 10 6 0 3 -11 -6 -25z m1756 -33 c3 -2 -9 0 -25 4 -37 8
-39 10 -30 24 5 8 13 6 28 -7 12 -10 24 -19 27 -21z m-977 -4 c8 -9 10 -32 6
-68 -6 -59 -12 -58 -9 2 1 28 -3 39 -21 48 -17 10 -19 14 -8 21 18 11 18 11
32 -3z m114 6 c-3 -3 -12 -4 -19 -1 -8 3 -5 6 6 6 11 1 17 -2 13 -5z m-33 -19
c6 -17 4 -18 -18 -9 -20 8 -21 24 -2 24 8 0 16 -7 20 -15z m31 -15 c3 -5 1
-10 -4 -10 -6 0 -11 5 -11 10 0 6 2 10 4 10 3 0 8 -4 11 -10z m895 0 c0 -5 -4
-10 -10 -10 -5 0 -10 5 -10 10 0 6 5 10 10 10 6 0 10 -4 10 -10z m-773 -22
c-3 -8 -6 -5 -6 6 -1 11 2 17 5 13 3 -3 4 -12 1 -19z m738 12 c3 -5 1 -10 -4
-10 -6 0 -11 5 -11 10 0 6 2 10 4 10 3 0 8 -4 11 -10z m325 6 c0 -2 -7 -7 -16
-10 -8 -3 -12 -2 -9 4 6 10 25 14 25 6z m-402 -31 c-3 -3 -9 2 -12 12 -6 14
-5 15 5 6 7 -7 10 -15 7 -18z m-858 -5 c0 -5 -5 -10 -11 -10 -5 0 -7 5 -4 10
3 6 8 10 11 10 2 0 4 -4 4 -10z m947 4 c-3 -3 -12 -4 -19 -1 -8 3 -5 6 6 6 11
1 17 -2 13 -5z m-751 -23 c0 -11 -5 -17 -13 -14 -14 6 -17 16 -6 26 11 12 19
7 19 -12z m1067 -22 c5 -3 -6 -6 -22 -7 -17 0 -31 4 -31 9 0 6 4 8 9 4 5 -3
13 0 16 6 4 5 10 7 14 2 3 -4 10 -11 14 -14z m-1313 -19 c18 -12 2 -12 -25 0
-13 6 -15 9 -5 9 8 0 22 -4 30 -9z m1180 -10 c0 -5 -12 -10 -27 -9 -25 0 -26
1 -8 9 27 12 35 12 35 0z m75 0 c4 -6 -6 -10 -22 -9 -25 0 -26 1 -8 9 11 5 21
9 22 9 1 1 5 -3 8 -9z m-1283 -23 c-6 -7 -13 -28 -14 -46 -3 -40 -18 -54 -38
-33 -13 14 -12 15 2 9 12 -4 15 -2 12 7 -3 8 -1 17 5 21 15 9 14 42 -1 48 -7
3 0 6 16 6 22 1 26 -2 18 -12z m388 4 c0 -17 -18 -21 -24 -6 -3 9 0 15 9 15 8
0 15 -4 15 -9z m-340 -21 c0 -5 -2 -10 -4 -10 -3 0 -8 5 -11 10 -3 6 -1 10 4
10 6 0 11 -4 11 -10z m72 -12 c-6 -6 -15 -8 -19 -4 -4 4 -1 11 7 16 19 12 27
3 12 -12z m312 -29 c-8 -14 -21 -11 -21 5 0 8 6 12 14 9 7 -3 10 -9 7 -14z
m-1463 -47 c-6 -2 -11 -10 -11 -18 0 -9 -12 -14 -37 -14 -20 0 -33 3 -29 8 4
4 11 7 14 7 26 2 52 19 58 38 7 21 8 21 12 2 2 -10 -1 -21 -7 -23z m929 23
c-7 -9 -15 -13 -17 -11 -7 7 7 26 19 26 6 0 6 -6 -2 -15z m480 4 c0 -15 -18
-19 -23 -6 -3 8 1 14 9 14 8 0 14 -4 14 -8z m-440 -29 c0 -5 -7 -10 -16 -10
-8 0 -12 5 -9 10 3 6 10 10 16 10 5 0 9 -4 9 -10z m-44 -42 c-9 -5 -24 -7 -34
-5 -12 3 -11 5 6 6 12 0 22 6 22 12 0 5 5 7 11 3 8 -5 6 -10 -5 -16z m1679 12
c3 -5 1 -10 -4 -10 -6 0 -11 5 -11 10 0 6 2 10 4 10 3 0 8 -4 11 -10z m-1908
-16 c-3 -3 -12 -4 -19 -1 -8 3 -5 6 6 6 11 1 17 -2 13 -5z m158 -5 c18 -8 17
-9 -4 -5 -14 3 -30 1 -36 -4 -8 -7 -12 -5 -12 5 0 17 22 18 52 4z m671 -56
c-7 -7 -26 7 -26 19 0 6 6 6 15 -2 9 -7 13 -15 11 -17z m1319 5 c-3 -7 -21
-14 -40 -15 -40 -2 -45 4 -12 17 33 13 57 12 52 -2z m-2140 -14 c13 -5 14 -8
3 -15 -20 -13 -38 -11 -38 6 0 16 9 19 35 9z m2179 -10 c9 -24 2 -26 -12 -4
-7 11 -8 20 -3 20 5 0 12 -7 15 -16z m-29 -64 c4 -6 -7 -10 -24 -10 -17 0 -31
5 -31 10 0 6 11 10 24 10 14 0 28 -4 31 -10z m-2508 -16 c-3 -3 -12 -4 -19 -1
-8 3 -5 6 6 6 11 1 17 -2 13 -5z m133 2 c0 -2 -7 -7 -16 -10 -8 -3 -12 -2 -9
4 6 10 25 14 25 6z m1310 -5 c0 -4 -13 -8 -30 -9 -39 -1 -39 12 0 15 17 1 30
-1 30 -6z m-1220 -22 c12 -8 9 -9 -12 -5 -27 6 -40 -8 -16 -16 7 -3 2 -7 -10
-10 -18 -5 -22 -2 -22 18 0 18 5 24 23 24 12 0 29 -5 37 -11z m-343 -48 c-2
-27 -3 -28 -19 -14 -24 21 -23 43 2 43 15 0 19 -6 17 -29z m2569 0 c-4 -5 0
-12 6 -14 8 -4 7 -6 -3 -6 -9 -1 -19 6 -23 14 -3 9 0 15 10 15 8 0 13 -4 10
-9z m-1016 -21 c-6 -11 -20 -20 -31 -20 -31 0 -1 30 39 39 1 1 -2 -8 -8 -19z
m1047 -2 c-3 -8 -6 -5 -6 6 -1 11 2 17 5 13 3 -3 4 -12 1 -19z m43 3 c0 -5 -7
-11 -15 -15 -9 -3 -15 0 -15 9 0 8 7 15 15 15 8 0 15 -4 15 -9z m-2627 -34 c7
3 9 2 4 -2 -4 -5 -17 -10 -29 -12 -18 -3 -19 -1 -7 13 8 10 15 12 17 5 2 -6 9
-8 15 -4z m-148 -37 c24 -6 18 -8 -30 -9 -42 0 -56 2 -45 9 17 11 32 11 75 0z
m-152 -7 c-7 -2 -19 -2 -25 0 -7 3 -2 5 12 5 14 0 19 -2 13 -5z m2000 0 c-7
-2 -19 -2 -25 0 -7 3 -2 5 12 5 14 0 19 -2 13 -5z m164 -19 c-3 -3 -12 -4 -19
-1 -8 3 -5 6 6 6 11 1 17 -2 13 -5z m71 -34 c-7 -11 -21 -20 -32 -20 -16 0
-16 2 5 20 31 25 42 25 27 0z m86 8 c-3 -4 -12 -8 -20 -8 -8 0 -13 4 -10 8 3
5 12 9 20 9 8 0 13 -4 10 -9z m-64 -18 c0 -5 -2 -10 -4 -10 -3 0 -8 5 -11 10
-3 6 -1 10 4 10 6 0 11 -4 11 -10z m110 -4 c0 -2 -11 -6 -25 -8 -13 -3 -22 -1
-19 3 5 9 44 13 44 5z m113 -3 c-13 -2 -35 -2 -50 0 -16 2 -5 4 22 4 28 0 40
-2 28 -4z m185 0 c-10 -2 -26 -2 -35 0 -10 3 -2 5 17 5 19 0 27 -2 18 -5z"/>
<path d="M3207 4623 c-10 -10 -8 -23 4 -23 5 0 7 5 3 12 -5 8 -2 9 9 5 9 -3
19 -2 22 3 7 11 -28 14 -38 3z"/>
<path d="M3430 4605 c0 -18 19 -40 26 -32 4 4 0 15 -9 24 -9 10 -17 13 -17 8z"/>
<path d="M3180 4589 c0 -7 -3 -9 -6 -6 -8 8 -44 -36 -44 -53 0 -6 -5 -8 -12
-4 -7 4 -8 3 -4 -4 11 -17 15 -15 26 14 6 15 14 22 22 18 7 -4 8 -3 4 4 -4 7
-1 12 8 12 19 0 30 17 16 25 -5 3 -10 1 -10 -6z"/>
<path d="M3068 4478 c-19 -19 -13 -24 11 -9 7 5 12 13 10 18 -2 5 -12 1 -21
-9z"/>
<path d="M3045 4440 c3 -5 8 -10 11 -10 2 0 4 5 4 10 0 6 -5 10 -11 10 -5 0
-7 -4 -4 -10z"/>
<path d="M3015 4420 c-29 -12 -99 -87 -87 -94 6 -3 13 3 17 14 6 19 25 28 25
12 0 -20 -28 -45 -41 -36 -8 5 -16 9 -19 10 -3 0 -12 3 -20 6 -57 22 -291 38
-260 18 8 -5 11 -10 5 -11 -5 -1 5 -5 24 -9 37 -9 103 -2 96 9 -2 4 10 5 28 2
31 -4 30 -5 -16 -15 -29 -7 -45 -15 -40 -20 4 -5 3 -6 -4 -2 -9 5 -13 1 -13
-12 0 -26 -11 -34 -27 -21 -11 10 -10 14 4 24 14 11 9 14 -35 25 -29 6 -52 16
-52 21 0 14 -28 -1 -35 -18 -3 -9 -1 -21 5 -27 7 -7 10 -3 10 12 0 12 4 22 9
22 18 0 19 -15 5 -40 -7 -14 -14 -20 -14 -15 0 6 -4 4 -9 -4 -6 -9 -4 -19 5
-28 18 -19 18 -33 -2 -33 -8 0 -12 -4 -9 -10 3 -5 -1 -10 -9 -10 -24 0 -28 17
-5 23 12 3 18 10 14 16 -3 6 -11 8 -17 5 -8 -5 -9 -1 -4 12 18 43 19 49 9 39
-5 -5 -16 -25 -23 -42 -17 -44 8 -103 45 -103 19 0 22 4 19 23 -4 20 -4 20 5
2 5 -12 5 -24 0 -30 -15 -15 -10 -25 11 -25 24 0 70 21 70 32 0 4 4 8 10 8 5
0 7 -8 3 -17 -6 -16 -3 -16 18 2 42 35 67 64 74 84 5 16 29 22 43 11 1 -2 5
-3 10 -5 4 -1 24 -9 45 -19 31 -13 45 -15 78 -6 22 6 37 15 35 19 -8 12 48 0
56 -13 14 -21 8 -26 -29 -26 l-38 -1 50 -19 c28 -11 65 -23 84 -26 32 -6 34
-5 28 17 -3 14 0 32 9 43 8 11 14 16 14 10 0 -5 5 -2 10 8 16 26 3 43 -49 65
l-49 20 3 -22 c1 -17 -2 -21 -17 -17 -10 2 -18 11 -18 18 0 8 -4 14 -10 14 -5
0 -10 5 -10 11 0 5 5 7 12 3 7 -5 8 -3 4 5 -5 7 -14 10 -22 7 -8 -3 -14 -1
-14 4 0 6 -6 10 -14 10 -7 0 -16 12 -19 26 -3 18 -1 24 9 20 7 -3 16 0 20 6 5
7 2 8 -6 3 -8 -5 -11 -3 -8 6 3 8 12 13 21 11 8 -1 19 2 22 8 10 16 3 19 -20
10z m-325 -80 c18 -12 2 -12 -25 0 -13 6 -15 9 -5 9 8 0 22 -4 30 -9z m245
-80 c-3 -5 -11 -10 -16 -10 -6 0 -7 5 -4 10 3 6 11 10 16 10 6 0 7 -4 4 -10z
m213 0 c11 -1 7 -6 -11 -16 -16 -8 -36 -13 -45 -11 -12 3 -11 5 6 6 21 1 30
15 15 24 -5 2 -2 2 5 0 8 -1 21 -3 30 -3z m-368 -10 c0 -5 -4 -10 -10 -10 -5
0 -10 5 -10 10 0 6 5 10 10 10 6 0 10 -4 10 -10z m136 -32 c-10 -6 -20 -7 -24
-3 -9 8 20 25 31 18 5 -3 2 -10 -7 -15z m-146 -2 c0 -9 -8 -12 -24 -9 -13 3
-27 0 -30 -6 -8 -13 -36 -15 -36 -3 0 5 17 13 38 19 52 15 52 15 52 -1z m-200
-51 c0 -8 -4 -15 -10 -15 -5 0 -7 7 -4 15 4 8 8 15 10 15 2 0 4 -7 4 -15z
m120 5 c0 -5 -2 -10 -4 -10 -3 0 -8 5 -11 10 -3 6 -1 10 4 10 6 0 11 -4 11
-10z m50 6 c0 -2 -7 -9 -15 -16 -12 -10 -15 -10 -15 4 0 9 7 16 15 16 8 0 15
-2 15 -4z m350 -11 c0 -9 -6 -12 -15 -9 -8 4 -12 10 -9 15 8 14 24 10 24 -6z
m-430 -14 c0 -5 -7 -12 -16 -15 -14 -5 -15 -4 -4 9 14 17 20 19 20 6z"/>
<path d="M3195 4240 c3 -5 8 -10 11 -10 2 0 4 5 4 10 0 6 -5 10 -11 10 -5 0
-7 -4 -4 -10z"/>
<path d="M3000 4200 c0 -5 5 -10 10 -10 6 0 10 5 10 10 0 6 -4 10 -10 10 -5 0
-10 -4 -10 -10z"/>
<path d="M3280 4196 c0 -2 7 -9 15 -16 9 -7 15 -8 15 -2 0 5 -7 12 -15 16 -8
3 -15 4 -15 2z"/>
<path d="M3217 4174 c-11 -12 -8 -24 7 -24 8 0 17 -7 20 -16 5 -14 4 -15 -9
-4 -8 7 -22 10 -30 6 -15 -5 -14 -9 1 -35 l18 -30 23 26 c22 23 23 27 9 42 -9
10 -13 21 -9 26 5 4 3 5 -4 2 -6 -4 -13 -2 -15 4 -2 5 -7 7 -11 3z"/>
<path d="M3316 4144 c-3 -9 -4 -20 0 -25 3 -5 -2 -9 -11 -9 -9 0 -14 -4 -10
-9 3 -5 -7 -11 -22 -13 -14 -2 -29 -10 -31 -18 -5 -13 -3 -13 12 -1 9 8 20 10
24 6 4 -4 1 -10 -6 -12 -6 -3 -10 -8 -7 -13 7 -11 55 0 55 14 0 6 4 4 10 -4 8
-12 10 -12 16 3 3 9 1 24 -6 32 -7 9 -10 19 -6 22 4 4 11 1 16 -7 6 -9 10 -10
10 -3 0 6 -7 18 -15 26 -8 8 -11 17 -8 21 4 3 2 6 -4 6 -6 0 -14 -7 -17 -16z"/>
<path d="M3280 4129 c0 -5 5 -7 10 -4 6 3 10 8 10 11 0 2 -4 4 -10 4 -5 0 -10
-5 -10 -11z"/>
<path d="M2625 4103 c-11 -3 -22 -8 -25 -12 -3 -4 -16 -15 -30 -25 l-25 -18
24 7 c25 8 91 44 91 51 0 4 -6 4 -35 -3z"/>
<path d="M2510 4040 c-8 -5 -10 -10 -5 -10 6 0 17 5 25 10 8 5 11 10 5 10 -5
0 -17 -5 -25 -10z"/>
<path d="M3750 4021 c-7 -15 -7 -21 0 -21 12 0 25 28 17 36 -3 3 -10 -4 -17
-15z"/>
<path d="M2940 4013 c0 -15 57 -31 71 -21 11 8 10 9 -3 5 -9 -3 -18 -2 -20 2
-4 12 -48 24 -48 14z"/>
<path d="M2386 3975 c-11 -8 -15 -15 -9 -15 6 0 16 7 23 15 16 19 11 19 -14 0z"/>
<path d="M2345 3949 c-4 -6 -5 -12 -2 -15 2 -3 7 2 10 11 7 17 1 20 -8 4z"/>
<path d="M2353 3925 c-8 -9 -9 -16 -3 -20 6 -3 13 1 16 10 9 21 2 26 -13 10z"/>
<path d="M2257 3914 c10 -4 10 -10 0 -25 -15 -24 -29 -25 -20 -1 6 15 5 15
-11 3 -13 -11 -14 -16 -4 -22 10 -7 10 -9 -2 -10 -8 -1 -19 -2 -25 -4 -5 -1
-21 -3 -35 -4 -14 -2 -19 -5 -12 -8 6 -2 12 -9 12 -14 0 -6 -6 -7 -12 -4 -7 4
-4 -1 7 -11 18 -15 18 -16 2 -10 -10 3 -23 6 -28 6 -6 0 -7 9 -4 20 3 11 2 20
-3 20 -6 0 -9 -11 -7 -25 1 -14 -2 -28 -6 -31 -5 -3 -9 2 -9 10 0 19 -31 21
-48 4 -16 -16 -15 -48 1 -48 8 0 7 -4 -3 -10 -12 -8 -11 -10 8 -10 14 0 22 6
22 18 0 14 2 15 10 2 8 -12 12 -13 19 -2 4 8 12 13 17 12 5 -1 10 4 13 11 2 7
-1 9 -9 4 -8 -5 -11 -4 -6 3 4 6 14 8 22 5 11 -4 28 7 50 31 26 29 41 37 62
34 24 -3 27 0 27 27 0 22 -5 30 -20 32 -11 2 -15 0 -8 -3z"/>
<path d="M2320 3890 c-13 -8 -12 -10 3 -10 9 0 17 5 17 10 0 12 -1 12 -20 0z"/>
<path d="M3493 3806 c5 -12 47 -10 59 2 5 5 -8 8 -27 8 -20 0 -34 -4 -32 -10z"/>
<path d="M2190 3783 c-12 -15 -12 -16 0 -5 17 14 34 16 25 2 -8 -13 5 -13 25
0 9 6 10 10 3 10 -6 0 -18 2 -26 5 -7 3 -20 -2 -27 -12z"/>
<path d="M2203 3763 c-25 -3 -40 -15 -66 -51 -29 -39 -65 -108 -67 -127 0 -3
-8 -13 -17 -23 -37 -39 -49 -58 -45 -71 3 -9 0 -11 -8 -6 -9 5 -11 4 -6 -4 9
-14 26 -5 26 14 0 7 4 15 8 17 20 8 73 88 67 99 -5 7 -4 10 2 6 6 -4 23 10 39
30 15 20 23 33 17 30 -6 -4 -14 0 -17 9 -3 8 -2 12 4 9 6 -3 10 1 10 10 0 10
5 13 12 9 8 -5 9 -2 5 10 -5 12 -3 16 5 13 7 -2 12 -11 10 -18 -2 -8 9 -3 25
11 15 14 32 28 38 32 6 5 6 7 0 6 -6 0 -24 -3 -42 -5z m7 -17 c0 -3 -4 -8 -10
-11 -5 -3 -10 -1 -10 4 0 6 5 11 10 11 6 0 10 -2 10 -4z m-82 -96 c-7 -11 -16
-20 -19 -20 -4 0 -5 9 -2 20 3 11 12 20 19 20 12 0 12 -4 2 -20z"/>
<path d="M2310 3698 c0 -9 5 -20 10 -23 13 -8 13 5 0 25 -8 13 -10 13 -10 -2z"/>
<path d="M3458 3665 c-21 -27 -22 -35 -8 -35 6 0 14 8 17 18 4 9 11 20 16 23
5 4 5 9 1 12 -5 3 -17 -6 -26 -18z"/>
<path d="M3471 3628 c-12 -25 -11 -32 0 -39 11 -7 11 -9 -2 -9 -9 0 -19 9 -22
20 -8 31 -23 24 -57 -27 -18 -26 -25 -42 -17 -35 12 10 16 10 20 0 4 -10 6
-10 6 0 1 6 10 12 22 12 14 0 19 -5 16 -14 -4 -9 2 -17 13 -21 24 -7 48 4 31
14 -7 5 -4 13 8 23 16 14 20 14 25 3 3 -8 1 -17 -4 -20 -17 -10 -11 -25 10
-25 22 0 25 11 11 38 -5 9 -15 36 -22 60 -16 55 -22 58 -38 20z m2 -65 c-7 -2
-19 -2 -25 0 -7 3 -2 5 12 5 14 0 19 -2 13 -5z"/>
<path d="M3868 3643 c6 -3 12 -10 12 -18 0 -17 27 -27 36 -14 8 14 -6 27 -36
32 -14 2 -19 2 -12 0z m42 -23 c0 -5 -2 -10 -4 -10 -3 0 -8 5 -11 10 -3 6 -1
10 4 10 6 0 11 -4 11 -10z"/>
<path d="M2266 3589 c19 -21 19 -22 -2 -15 -15 4 -24 2 -27 -8 -4 -10 -1 -13
9 -9 8 3 14 -1 14 -8 0 -8 12 -20 27 -26 34 -16 46 -16 37 -1 -5 8 4 9 32 5
39 -6 84 0 84 12 0 7 -118 54 -142 56 -10 1 -21 4 -24 8 -18 18 -25 5 -8 -14z
m44 -9 c0 -5 -4 -10 -10 -10 -5 0 -10 5 -10 10 0 6 5 10 10 10 6 0 10 -4 10
-10z m0 -36 c0 -2 -9 -4 -21 -4 -11 0 -18 4 -14 10 5 8 35 3 35 -6z m90 -4 c0
-5 -2 -10 -4 -10 -3 0 -8 5 -11 10 -3 6 -1 10 4 10 6 0 11 -4 11 -10z"/>
<path d="M2490 3590 c0 -11 7 -20 15 -20 17 0 18 2 9 24 -9 23 -24 20 -24 -4z"/>
<path d="M2525 3600 c3 -5 8 -10 11 -10 2 0 4 5 4 10 0 6 -5 10 -11 10 -5 0
-7 -4 -4 -10z"/>
<path d="M4196 3534 c-11 -8 -16 -14 -10 -14 13 0 39 18 34 24 -3 2 -14 -2
-24 -10z"/>
<path d="M1963 3459 c-13 -13 -6 -42 8 -34 4 3 5 13 2 22 -4 11 -3 14 5 9 7
-4 12 -2 12 3 0 14 -13 14 -27 0z"/>
<path d="M1941 3414 c0 -11 3 -14 6 -6 3 7 2 16 -1 19 -3 4 -6 -2 -5 -13z"/>
<path d="M4249 3352 c46 -39 88 -69 93 -66 15 9 -12 33 -29 27 -10 -4 -14 -2
-10 4 4 6 -1 17 -11 26 -17 15 -21 17 -44 17 -6 0 -9 3 -5 6 9 9 -25 41 -53
49 -15 5 7 -20 59 -63z m42 -19 c13 -16 12 -17 -3 -4 -17 13 -22 21 -14 21 2
0 10 -8 17 -17z"/>
<path d="M4043 3339 c-9 -9 -6 -16 12 -31 24 -19 45 -17 45 3 0 6 -4 8 -9 5
-5 -3 -8 2 -7 11 1 21 -25 28 -41 12z"/>
<path d="M2052 3308 c-18 -18 -14 -28 11 -27 12 0 17 3 10 5 -7 3 -9 12 -6 20
6 17 1 18 -15 2z"/>
<path d="M4370 3282 c0 -7 -6 -10 -12 -7 -7 4 -4 -1 7 -10 11 -9 29 -21 40
-26 17 -9 18 -8 4 3 -8 7 -21 22 -27 33 -6 11 -12 14 -12 7z"/>
<path d="M4151 3246 c-9 -11 -9 -15 1 -20 7 -3 4 -5 -8 -2 -38 6 -57 -18 -51
-64 3 -23 8 -44 11 -47 9 -9 101 80 98 94 -2 8 3 10 13 7 21 -8 19 -2 -7 20
-17 15 -20 16 -15 2 4 -10 -1 -20 -13 -26 -29 -16 -48 -11 -20 5 14 8 19 14
11 15 -11 0 -11 3 -1 15 7 8 8 15 2 15 -5 0 -15 -6 -21 -14z m-24 -81 c-7 -14
-16 -25 -20 -25 -4 0 -3 8 2 19 6 10 7 21 4 25 -3 3 1 6 9 6 14 0 14 -4 5 -25z
m43 17 c0 -4 -9 -13 -20 -20 -23 -14 -26 -8 -7 13 13 16 27 19 27 7z"/>
<path d="M1952 3125 c-12 -14 -18 -25 -13 -25 6 0 12 4 16 10 3 5 12 7 20 3
16 -6 19 5 7 25 -6 9 -14 6 -30 -13z"/>
<path d="M1860 3035 c-7 -8 -8 -15 -2 -15 5 0 15 7 22 15 7 8 8 15 2 15 -5 0
-15 -7 -22 -15z"/>
<path d="M1830 3000 c0 -5 5 -10 10 -10 6 0 10 5 10 10 0 6 -4 10 -10 10 -5 0
-10 -4 -10 -10z"/>
<path d="M1780 2965 c-28 -30 -18 -33 16 -6 14 11 21 22 16 25 -5 3 -20 -6
-32 -19z"/>
<path d="M1666 2854 c-6 -16 0 -34 12 -34 4 0 7 11 7 25 0 28 -10 33 -19 9z"/>
<path d="M4710 2850 c0 -5 9 -10 21 -10 11 0 17 5 14 10 -3 6 -13 10 -21 10
-8 0 -14 -4 -14 -10z"/>
<path d="M2725 2769 c-4 -6 -12 -8 -19 -6 -16 6 -52 -21 -41 -30 4 -5 10 -2
12 5 3 6 8 10 12 8 4 -3 20 4 37 15 16 10 24 19 17 19 -6 0 -15 -5 -18 -11z"/>
<path d="M3477 2773 c-13 -12 -7 -21 11 -16 22 5 47 -21 39 -41 -6 -15 35 -66
53 -66 5 0 10 -5 10 -12 0 -6 3 -8 7 -4 4 4 -10 23 -32 42 -22 20 -33 33 -24
31 13 -4 15 -1 11 16 -9 36 -57 68 -75 50z"/>
<path d="M2720 2717 c-19 -13 -50 -29 -67 -36 -18 -7 -30 -18 -27 -23 3 -5 0
-8 -7 -7 -8 1 -22 -1 -31 -5 -15 -7 -16 -12 -6 -29 10 -21 10 -21 -8 -5 -17
15 -23 15 -53 2 -39 -17 -37 -30 3 -14 21 8 28 7 32 -5 8 -19 -3 -35 -24 -35
-14 0 -15 2 -2 10 24 15 5 22 -25 8 -22 -10 -29 -10 -32 -1 -3 8 -21 6 -63 -9
-32 -12 -56 -26 -53 -31 3 -6 1 -7 -6 -3 -6 4 -51 -4 -99 -17 -128 -37 -256
-50 -424 -45 -122 3 -148 2 -153 -10 -4 -12 -3 -13 10 -2 9 8 15 8 15 2 0 -6
-4 -14 -10 -17 -16 -10 -12 -25 6 -18 12 4 14 -1 12 -23 -3 -23 3 -31 37 -50
22 -12 46 -28 53 -34 7 -6 27 -12 45 -14 18 -2 42 -8 54 -14 22 -12 91 -17 80
-6 -3 4 -21 10 -39 15 -29 8 -28 8 7 2 61 -10 123 -7 139 6 8 7 34 14 57 16
55 6 81 14 74 25 -3 5 -12 7 -20 4 -7 -3 -22 -1 -32 4 -17 10 -17 11 1 18 11
4 30 1 45 -8 23 -13 32 -13 86 5 88 29 158 78 270 188 121 118 142 137 178
155 26 14 35 24 19 24 -4 0 -23 -10 -42 -23z m-90 -82 c0 -2 -6 -5 -13 -8 -8
-3 -14 1 -14 8 0 7 6 11 14 8 7 -3 13 -6 13 -8z m-108 -89 c14 7 -46 -61 -72
-83 -8 -7 -22 -12 -30 -12 -11 0 -11 2 -2 6 10 4 10 8 1 19 -13 16 2 19 17 4
8 -8 19 0 38 25 21 27 23 35 12 35 -9 0 -16 -5 -16 -11 0 -5 -4 -8 -9 -5 -7 5
-8 21 -2 44 1 1 12 -5 26 -14 13 -8 30 -12 37 -8z m-257 -60 c12 -12 12 -15 0
-20 -8 -3 -15 -1 -15 4 0 6 -7 10 -16 10 -8 0 -12 5 -9 10 9 14 24 12 40 -4z
m85 -10 c-6 -8 -19 -12 -27 -9 -14 6 -14 8 3 14 30 12 37 10 24 -5z m-194 -11
c-1 -8 -6 -18 -12 -22 -5 -4 -6 -4 -2 1 4 5 3 15 -3 23 -9 10 -8 13 4 13 8 0
14 -7 13 -15z m234 -5 c-8 -5 -19 -10 -25 -10 -5 0 -3 5 5 10 8 5 20 10 25 10
6 0 3 -5 -5 -10z m-262 -14 c3 -3 -3 -9 -13 -13 -11 -4 -20 -2 -23 5 -2 7 -11
8 -28 2 -13 -5 -24 -7 -24 -4 0 16 73 25 88 10z m-325 -17 c4 -16 1 -20 -16
-17 -12 2 -23 11 -25 21 -5 25 34 22 41 -4z m582 1 c-3 -5 -11 -10 -16 -10 -6
0 -7 5 -4 10 3 6 11 10 16 10 6 0 7 -4 4 -10z m-482 -17 c-13 -2 -35 -2 -50 0
-16 2 -5 4 22 4 28 0 40 -2 28 -4z m-177 -30 c-10 -10 -19 5 -10 18 6 11 8 11
12 0 2 -7 1 -15 -2 -18z m88 5 c-5 -8 -2 -9 9 -5 9 3 19 1 23 -4 4 -7 -3 -9
-17 -7 -23 3 -40 28 -19 28 6 0 8 -5 4 -12z m319 -5 c-3 -7 -6 -13 -8 -13 -2
0 -5 6 -8 13 -3 8 1 14 8 14 7 0 11 -6 8 -14z m167 3 c-7 -7 -14 -6 -21 1 -9
9 -7 12 9 10 14 -1 18 -5 12 -11z m-50 -6 c8 -5 11 -10 5 -10 -5 0 -17 5 -25
10 -8 5 -10 10 -5 10 6 0 17 -5 25 -10z m-459 -27 c13 -15 12 -15 -8 -4 -24
12 -29 21 -14 21 5 0 15 -7 22 -17z m244 -3 c2 -4 -14 -6 -35 -4 -22 1 -40 -2
-40 -7 0 -5 -5 -9 -11 -9 -8 0 -7 5 1 15 7 9 19 14 27 11 7 -3 13 -1 13 3 0
10 38 3 45 -9z m125 -4 c0 -11 -19 -15 -25 -6 -3 5 1 10 9 10 9 0 16 -2 16 -4z"/>
<path d="M3496 2725 c4 -8 8 -15 10 -15 2 0 4 7 4 15 0 8 -4 15 -10 15 -5 0
-7 -7 -4 -15z"/>
<path d="M2625 2720 c-3 -5 -2 -10 4 -10 5 0 13 5 16 10 3 6 2 10 -4 10 -5 0
-13 -4 -16 -10z"/>
<path d="M2303 2632 c-13 -2 -23 -10 -23 -18 0 -8 -7 -14 -15 -14 -8 0 -15 -4
-15 -9 0 -5 -11 -8 -25 -5 -19 3 -23 1 -19 -11 4 -8 12 -15 19 -15 13 0 67 16
100 30 11 5 25 10 32 12 20 5 -31 34 -54 30z"/>
<path d="M3745 2530 c3 -5 11 -10 16 -10 6 0 7 5 4 10 -3 6 -11 10 -16 10 -6
0 -7 -4 -4 -10z"/>
<path d="M4840 2511 c0 -12 -83 -46 -165 -67 -38 -11 -72 -21 -75 -24 -3 -3
-23 -6 -45 -8 -22 -1 -47 -5 -55 -9 -13 -6 -97 -14 -172 -17 -16 0 -28 -5 -28
-9 0 -4 -9 -3 -19 3 -31 16 -51 12 -51 -10 0 -11 -7 -20 -16 -20 -10 0 -14 7
-12 23 3 20 -1 22 -49 23 -29 0 -53 -3 -53 -8 0 -4 6 -8 13 -8 8 0 7 -4 -3
-10 -21 -14 -30 -12 -30 5 0 8 -8 16 -17 17 -10 0 -23 2 -29 2 -6 1 -18 7 -27
15 -9 7 -21 9 -28 5 -8 -5 -3 -12 15 -21 14 -8 32 -11 38 -7 7 4 8 3 4 -4 -7
-12 87 -65 98 -55 3 4 6 2 6 -3 0 -5 15 -9 33 -9 17 0 49 -4 70 -8 23 -5 37
-5 33 1 -3 5 1 9 9 9 24 0 17 -14 -14 -27 -34 -14 -77 -10 -73 8 2 13 -10 16
-21 5 -12 -12 30 -32 79 -39 129 -16 174 -17 174 -3 0 12 2 12 9 0 6 -10 28
-12 92 -8 104 6 159 18 190 42 19 14 20 16 4 10 -11 -4 -33 -10 -50 -12 -27
-3 -26 -2 8 11 21 8 41 17 44 20 4 3 11 2 17 -4 8 -6 16 -2 25 12 7 11 8 17 3
14 -5 -3 -9 5 -9 19 0 21 1 22 14 9 18 -18 24 -18 17 1 -4 8 -1 15 5 15 6 0
11 -5 11 -11 0 -16 29 16 40 46 13 34 13 95 0 95 -5 0 -10 -4 -10 -9z m-70
-65 c-8 -8 -37 -16 -65 -20 l-50 -5 60 18 c33 10 62 19 65 20 2 0 -2 -5 -10
-13z m52 -10 c3 2 8 -1 11 -9 3 -9 -2 -13 -16 -12 -11 1 -21 9 -23 19 -2 13 1
14 10 7 7 -6 15 -8 18 -5z m-175 -22 c-3 -3 -12 -4 -19 -1 -8 3 -5 6 6 6 11 1
17 -2 13 -5z m83 -14 c-8 -5 -24 -10 -35 -10 -17 0 -17 2 -5 10 8 5 24 10 35
10 17 0 17 -2 5 -10z m-76 -9 c4 -5 -3 -7 -14 -4 -23 6 -26 13 -6 13 8 0 17
-4 20 -9z m-121 -26 c-3 -9 -8 -14 -10 -11 -3 3 -2 9 2 15 9 16 15 13 8 -4z
m-25 -1 c-10 -9 -128 -11 -128 -2 0 4 30 8 67 8 36 0 64 -3 61 -6z m192 -3 c0
-17 -15 -19 -28 -5 -11 12 -9 14 8 14 11 0 20 -4 20 -9z m-325 -41 c15 -7 9
-9 -22 -7 -24 1 -43 5 -43 10 0 9 40 8 65 -3z m65 -21 c0 -14 -7 -19 -27 -20
-25 0 -26 -1 -8 -9 17 -7 15 -9 -12 -9 -18 -1 -33 3 -33 8 0 5 15 13 33 17 17
4 26 9 20 11 -20 7 -15 19 7 20 14 1 20 -4 20 -18z m129 5 c2 -2 -14 -4 -37
-4 -22 0 -43 4 -46 8 -5 9 75 5 83 -4z m51 -4 l-25 -8 24 -1 c30 -1 25 -6 -14
-15 -22 -5 -26 -4 -15 4 13 9 13 10 0 10 -13 0 -13 1 0 10 8 5 24 9 35 9 16
-1 16 -2 -5 -9z m-285 -20 c3 -5 -3 -10 -15 -10 -12 0 -18 5 -15 10 3 6 10 10
15 10 5 0 12 -4 15 -10z m182 4 c-3 -3 -12 -4 -19 -1 -8 3 -5 6 6 6 11 1 17
-2 13 -5z m-4 -21 c-7 -2 -19 -2 -25 0 -7 3 -2 5 12 5 14 0 19 -2 13 -5z"/>
<path d="M3945 2420 c3 -5 8 -10 11 -10 2 0 4 5 4 10 0 6 -5 10 -11 10 -5 0
-7 -4 -4 -10z"/>
<path d="M4870 5370 c0 -5 5 -10 10 -10 6 0 10 5 10 10 0 6 -4 10 -10 10 -5 0
-10 -4 -10 -10z"/>
<path d="M1660 5330 c-20 -16 -21 -19 -5 -13 22 8 51 33 38 33 -4 0 -19 -9
-33 -20z"/>
<path d="M1705 5333 c-14 -11 -16 -17 -7 -20 6 -3 12 -9 12 -14 0 -6 -4 -8 -9
-5 -5 3 -12 -1 -15 -10 -4 -10 -2 -13 6 -8 8 5 9 2 5 -10 -4 -10 -2 -27 4 -38
6 -11 7 -18 2 -15 -4 2 -17 1 -28 -4 l-20 -8 20 -1 c11 -1 28 -3 37 -5 9 -2
19 4 22 12 4 8 2 11 -5 7 -8 -4 -9 1 -4 16 6 19 4 22 -10 16 -14 -5 -16 -2
-10 11 12 30 27 85 23 88 -2 2 -12 -4 -23 -12z"/>
<path d="M4802 5338 c-14 -14 -16 -62 -2 -53 17 11 11 -15 -12 -45 -17 -23
-19 -33 -10 -42 9 -9 12 -9 12 0 0 6 6 9 14 6 10 -4 12 1 9 19 -3 14 0 28 6
31 6 4 7 15 1 30 -13 34 2 51 31 36 24 -11 24 -11 -1 9 -29 24 -32 25 -48 9z"/>
<path d="M1450 5235 c-16 -19 3 -45 32 -45 12 0 23 -11 29 -30 16 -44 69 -38
69 7 0 3 -7 0 -15 -7 -8 -7 -15 -9 -15 -4 0 5 -5 2 -11 -6 -9 -13 -10 -13 -8
0 4 42 -2 60 -20 60 -25 0 -47 26 -29 33 9 4 8 6 -3 6 -9 1 -22 -6 -29 -14z
m37 -31 c-3 -3 -12 -4 -19 -1 -8 3 -5 6 6 6 11 1 17 -2 13 -5z m33 -14 c0 -5
-2 -10 -4 -10 -3 0 -8 5 -11 10 -3 6 -1 10 4 10 6 0 11 -4 11 -10z"/>
<path d="M5026 5235 c-3 -10 1 -15 11 -15 9 0 13 -3 9 -7 -4 -5 -19 -8 -33 -8
-15 0 -30 -8 -37 -20 -6 -11 -15 -24 -21 -28 -6 -5 -3 -7 8 -3 9 3 17 1 17 -4
0 -6 -9 -10 -20 -10 -13 0 -22 10 -29 33 -8 28 -9 29 -10 7 0 -29 18 -55 39
-55 21 0 30 15 31 50 0 17 3 25 5 18 7 -16 58 0 62 20 2 9 -2 17 -8 17 -6 0
-8 5 -5 10 3 6 2 10 -3 10 -6 0 -12 -7 -16 -15z"/>
<path d="M1581 5194 c0 -11 3 -14 6 -6 3 7 2 16 -1 19 -3 4 -6 -2 -5 -13z"/>
<path d="M1608 5195 c19 -38 84 -86 114 -85 7 1 -5 10 -27 20 -22 11 -53 35
-69 52 -15 18 -24 24 -18 13z"/>
<path d="M4828 5141 c-27 -14 -48 -29 -48 -33 0 -10 75 29 90 46 15 19 16 20
-42 -13z"/>
<path d="M1395 5056 c-62 -27 -109 -110 -97 -171 4 -25 8 -27 40 -21 79 12
158 104 150 173 -2 23 -8 28 -33 30 -16 2 -44 -3 -60 -11z"/>
<path d="M5025 5059 c-12 -18 5 -82 32 -121 26 -38 93 -78 130 -78 14 0 22 8
26 26 11 60 -32 137 -95 170 -32 17 -84 18 -93 3z"/>
<path d="M1152 5028 c-58 -74 -54 -198 9 -242 34 -23 47 -20 69 17 39 63 16
197 -39 227 -25 13 -26 13 -39 -2z"/>
<path d="M5317 5029 c-28 -16 -57 -84 -57 -134 0 -53 22 -113 45 -121 22 -9
60 19 79 59 41 87 -8 229 -67 196z"/>
<path d="M1001 4824 c-47 -59 -32 -167 31 -219 38 -32 44 -32 68 8 37 61 15
181 -41 221 -31 21 -34 21 -58 -10z"/>
<path d="M5451 4834 c-32 -23 -61 -90 -61 -144 0 -47 30 -110 51 -110 25 0 87
78 94 118 7 46 -6 106 -31 133 -21 23 -24 23 -53 3z"/>
<path d="M1315 4815 c-41 -15 -75 -47 -75 -71 0 -25 61 -54 114 -54 59 0 136
40 136 70 0 48 -105 81 -175 55z"/>
<path d="M5084 4819 c-17 -5 -39 -17 -48 -28 -57 -62 89 -129 189 -86 63 26
55 68 -18 104 -46 22 -73 25 -123 10z"/>
<path d="M5215 4650 c-39 -9 -75 -31 -75 -48 0 -23 59 -71 96 -78 49 -9 123 1
141 19 47 47 -73 126 -162 107z"/>
<path d="M874 4618 c-11 -22 -15 -48 -12 -90 5 -65 26 -102 76 -131 l31 -18
18 27 c40 61 8 189 -57 227 -37 22 -37 22 -56 -15z"/>
<path d="M1172 4630 c-18 -11 -38 -32 -44 -46 -11 -23 -10 -29 11 -45 49 -40
192 -13 221 40 15 29 13 35 -19 54 -41 24 -127 22 -169 -3z"/>
<path d="M5600 4641 c-31 -12 -57 -37 -75 -71 -24 -46 -25 -128 -2 -164 l18
-27 31 18 c43 25 66 60 76 113 12 66 -16 144 -48 131z"/>
<path d="M1125 4471 c-43 -11 -84 -39 -101 -72 -19 -38 -19 -38 21 -55 62 -25
140 -10 187 36 40 41 37 64 -12 84 -44 17 -49 18 -95 7z"/>
<path d="M5288 4463 c-47 -19 -49 -44 -7 -84 50 -47 123 -60 184 -35 41 17 41
20 15 63 -35 58 -125 84 -192 56z"/>
<path d="M780 4424 c-18 -21 -24 -106 -11 -146 14 -42 56 -84 93 -93 24 -6 29
-3 38 20 30 78 -9 183 -81 221 -23 12 -29 11 -39 -2z"/>
<path d="M5680 4418 c-64 -42 -97 -143 -70 -213 9 -23 14 -26 38 -20 32 8 68
40 88 77 20 39 18 131 -4 158 l-17 21 -35 -23z"/>
<path d="M1022 4278 c-38 -13 -92 -70 -92 -98 0 -50 122 -54 185 -6 48 37 64
71 43 92 -20 20 -93 26 -136 12z"/>
<path d="M5368 4275 c-16 -9 -28 -22 -28 -31 0 -20 57 -76 93 -92 41 -18 111
-15 137 6 l21 17 -23 34 c-13 19 -35 43 -50 54 -35 26 -114 32 -150 12z"/>
<path d="M680 4184 c-21 -54 -2 -125 47 -176 31 -32 81 -47 94 -27 15 24 9
102 -10 145 -35 77 -111 111 -131 58z"/>
<path d="M5753 4195 c-39 -27 -73 -97 -73 -148 0 -25 3 -52 6 -61 11 -30 55
-18 99 27 34 33 44 52 49 87 13 91 -25 135 -81 95z"/>
<path d="M934 4071 c-62 -38 -96 -110 -58 -125 30 -11 89 -6 129 13 46 21 69
44 84 83 9 23 7 29 -9 38 -31 17 -112 12 -146 -9z"/>
<path d="M5428 4079 c-14 -8 -15 -15 -7 -37 15 -39 38 -62 84 -83 40 -19 99
-24 129 -13 41 16 -6 103 -71 130 -38 16 -110 18 -135 3z"/>
<path d="M614 3963 c-10 -39 2 -113 23 -142 27 -35 81 -71 109 -71 18 0 24 7
29 33 15 80 -42 176 -115 195 -38 9 -40 9 -46 -15z"/>
<path d="M5850 3979 c-70 -15 -130 -116 -116 -194 7 -36 8 -37 43 -32 69 12
123 87 123 169 0 57 -8 66 -50 57z"/>
<path d="M917 3886 c-52 -19 -85 -52 -99 -99 -15 -49 -2 -59 63 -54 65 5 117
40 141 95 11 24 16 48 11 52 -16 17 -79 20 -116 6z"/>
<path d="M5491 3889 c-15 -6 -21 -14 -17 -25 3 -9 6 -20 6 -24 0 -18 66 -83
97 -96 34 -15 81 -18 107 -8 43 16 -4 106 -74 142 -47 23 -80 27 -119 11z"/>
<path d="M566 3734 c-19 -49 13 -138 63 -174 18 -12 49 -24 70 -27 35 -5 39
-3 43 22 11 57 -30 142 -84 175 -40 24 -84 26 -92 4z"/>
<path d="M5870 3743 c-52 -19 -100 -100 -100 -169 l0 -47 40 6 c71 9 122 60
136 134 10 54 -2 83 -34 82 -15 0 -34 -3 -42 -6z"/>
<path d="M856 3667 c-70 -40 -101 -138 -46 -145 35 -5 101 16 128 41 31 29 52
70 52 102 0 23 -3 25 -47 25 -31 0 -62 -8 -87 -23z"/>
<path d="M5523 3649 c9 -70 92 -133 165 -127 36 3 37 4 36 39 -2 74 -70 129
-159 129 l-48 0 6 -41z"/>
<path d="M540 3476 c0 -57 10 -84 47 -123 30 -32 99 -58 127 -47 23 9 20 59
-5 112 -25 50 -96 102 -141 102 -26 0 -28 -2 -28 -44z"/>
<path d="M5885 3501 c-48 -22 -69 -44 -90 -94 -31 -76 -15 -114 43 -101 79 19
132 86 132 169 0 40 -2 45 -22 45 -13 0 -41 -9 -63 -19z"/>
<path d="M865 3475 c-64 -30 -95 -74 -95 -136 0 -37 16 -44 69 -29 76 20 148
112 128 164 -8 20 -61 20 -102 1z"/>
<path d="M5551 3481 c-21 -14 -5 -76 30 -116 35 -39 107 -70 139 -60 20 6 22
12 17 52 -3 33 -13 54 -38 79 -43 44 -115 66 -148 45z"/>
<path d="M890 3279 c-45 -10 -106 -75 -115 -123 -10 -51 -1 -66 38 -66 68 0
147 81 147 150 0 43 -14 51 -70 39z"/>
<path d="M5568 3282 c-27 -5 -24 -71 5 -112 31 -47 67 -71 115 -77 49 -7 58 6
47 63 -13 71 -105 140 -167 126z"/>
<path d="M530 3247 c0 -83 82 -166 163 -167 37 0 37 0 37 40 0 80 -79 160
-159 160 -40 0 -41 -1 -41 -33z"/>
<path d="M5870 3263 c-44 -30 -79 -77 -90 -121 -13 -54 -8 -62 38 -62 82 1
162 83 162 167 0 32 -1 33 -43 33 -24 0 -53 -8 -67 -17z"/>
<path d="M878 3060 c-49 -26 -78 -76 -78 -134 0 -58 14 -65 75 -36 67 32 115
111 101 165 -8 31 -44 33 -98 5z"/>
<path d="M5534 3056 c-15 -62 51 -155 126 -177 22 -7 43 -10 46 -6 3 3 6 26 6
51 0 61 -33 113 -86 137 -58 26 -84 25 -92 -5z"/>
<path d="M575 3042 c-11 -2 -24 -7 -28 -12 -14 -13 14 -85 45 -119 37 -39 65
-51 125 -51 l46 0 -6 39 c-6 49 -31 87 -76 115 -39 25 -75 34 -106 28z"/>
<path d="M5878 3039 c-60 -16 -128 -97 -128 -151 0 -29 15 -34 75 -28 66 7
132 73 137 139 3 31 0 35 -27 41 -16 4 -42 3 -57 -1z"/>
<path d="M925 2861 c-45 -27 -72 -61 -83 -104 -12 -44 1 -97 24 -97 48 0 129
78 140 135 15 79 -17 106 -81 66z"/>
<path d="M5504 2855 c-16 -64 37 -157 106 -185 46 -19 60 -8 60 48 0 57 -27
104 -79 139 -46 31 -79 30 -87 -2z"/>
<path d="M5845 2810 c-61 -13 -114 -60 -134 -120 -10 -30 -9 -37 6 -47 46 -35
153 6 190 72 32 57 31 92 -5 97 -15 2 -41 1 -57 -2z"/>
<path d="M580 2785 c0 -95 146 -192 213 -142 35 25 -16 117 -85 153 -15 8 -50
14 -78 14 -47 0 -50 -2 -50 -25z"/>
<path d="M974 2661 c-62 -38 -94 -115 -74 -177 10 -29 15 -34 33 -28 82 24
142 122 123 198 -8 32 -38 34 -82 7z"/>
<path d="M5454 2654 c-17 -67 28 -152 100 -188 43 -21 51 -16 62 41 13 67 -68
173 -132 173 -17 0 -25 -7 -30 -26z"/>
<path d="M660 2581 c-20 -6 -25 -13 -23 -35 3 -35 45 -91 83 -111 32 -16 117
-20 139 -6 30 19 -20 106 -78 136 -36 18 -90 25 -121 16z"/>
<path d="M5755 2575 c-50 -18 -115 -85 -115 -119 0 -44 90 -54 157 -17 29 15
69 69 77 104 5 23 3 29 -19 37 -34 13 -52 12 -100 -5z"/>
<path d="M1050 2468 c-47 -32 -71 -68 -77 -116 -6 -44 12 -102 31 -102 22 0
77 41 95 72 27 43 36 103 21 139 -15 35 -27 36 -70 7z"/>
<path d="M5390 2461 c-26 -64 14 -159 82 -196 47 -25 59 -15 66 53 6 67 -25
124 -83 152 -23 11 -44 20 -47 20 -3 0 -11 -13 -18 -29z"/>
<path d="M5674 2354 c-50 -17 -85 -44 -108 -83 -17 -29 -17 -34 -3 -48 8 -8
35 -17 59 -20 75 -9 161 48 174 115 7 33 8 32 -67 46 -9 2 -33 -3 -55 -10z"/>
<path d="M721 2352 c-21 -15 -5 -65 32 -100 55 -52 164 -67 197 -27 16 19 -10
66 -56 102 -29 21 -49 28 -98 31 -33 1 -67 -1 -75 -6z"/>
<path d="M5312 2285 c-16 -35 -15 -98 2 -138 7 -18 30 -47 50 -65 43 -38 57
-33 76 24 22 65 -11 147 -72 184 -42 25 -42 25 -56 -5z"/>
<path d="M1115 2267 c-47 -47 -63 -106 -44 -160 18 -53 44 -59 84 -20 36 36
55 82 55 133 0 84 -39 103 -95 47z"/>
<path d="M823 2138 c-28 -13 -28 -25 -5 -60 34 -51 71 -72 136 -76 50 -3 66 0
85 16 l25 19 -20 33 c-37 65 -154 100 -221 68z"/>
<path d="M5529 2127 c-24 -13 -52 -38 -63 -57 l-20 -33 23 -18 c54 -44 179
-12 220 54 27 44 26 51 -4 65 -42 19 -108 14 -156 -11z"/>
<path d="M5216 2108 c-38 -54 -7 -186 53 -221 30 -17 30 -17 47 8 9 14 18 44
21 68 5 54 -29 124 -74 150 -31 18 -31 18 -47 -5z"/>
<path d="M1220 2090 c-52 -56 -63 -139 -25 -196 15 -23 17 -24 45 -9 39 20 70
82 70 139 0 96 -37 123 -90 66z"/>
<path d="M5101 1934 c-33 -42 -29 -127 9 -187 16 -26 36 -47 44 -47 8 0 24 12
36 28 19 23 21 37 18 89 -4 65 -23 102 -65 130 -19 13 -23 11 -42 -13z"/>
<path d="M948 1939 c-36 -14 -40 -30 -16 -67 23 -37 91 -72 139 -72 38 0 101
28 107 48 2 7 -11 27 -30 46 -50 50 -134 69 -200 45z"/>
<path d="M1343 1928 c-33 -37 -43 -64 -43 -118 0 -55 28 -110 56 -110 8 0 28
21 44 47 66 104 16 261 -57 181z"/>
<path d="M5433 1940 c-38 -12 -107 -74 -101 -92 6 -20 69 -48 107 -48 49 0
116 35 140 73 19 31 20 33 3 50 -22 21 -104 30 -149 17z"/>
<path d="M1478 1773 c-52 -54 -61 -118 -28 -184 25 -48 44 -57 70 -34 51 46
63 159 23 214 -27 35 -35 35 -65 4z"/>
<path d="M4971 1774 c-43 -54 -36 -163 14 -213 30 -30 48 -23 75 28 33 66 24
130 -28 184 -32 33 -35 33 -61 1z"/>
<path d="M1092 1750 c-13 -5 -30 -17 -39 -26 -14 -14 -14 -18 4 -42 25 -35 98
-72 141 -72 19 0 52 10 74 22 48 27 47 49 -5 91 -30 25 -48 31 -95 34 -31 1
-67 -2 -80 -7z"/>
<path d="M5280 1744 c-40 -17 -80 -52 -80 -69 0 -22 46 -54 88 -61 54 -9 122
16 157 58 31 37 29 48 -16 70 -41 22 -102 22 -149 2z"/>
<path d="M1632 1568 c-12 -40 -26 -94 -33 -120 l-11 -47 -114 -48 c-63 -26
-114 -50 -113 -53 0 -3 28 -27 61 -54 l61 -50 24 30 c13 16 56 72 95 124 40
52 73 97 75 100 2 2 57 3 121 1 l117 -3 -55 37 c-30 21 -87 64 -127 96 -39 33
-73 59 -76 59 -2 0 -14 -33 -25 -72z"/>
<path d="M4830 1624 c-8 -8 -57 -47 -109 -86 -53 -39 -100 -75 -106 -80 -6 -6
34 -8 102 -7 62 2 114 1 116 -1 2 -3 24 -32 48 -65 97 -130 143 -185 150 -183
13 5 118 92 119 99 0 4 -21 14 -47 24 -27 10 -77 31 -114 47 -62 28 -66 31
-77 76 -29 110 -55 192 -62 192 -4 0 -13 -7 -20 -16z"/>
<path d="M1245 1566 c-17 -7 -36 -21 -44 -30 -12 -14 -11 -20 10 -43 49 -53
134 -68 198 -35 50 25 60 46 36 73 -42 46 -136 63 -200 35z"/>
<path d="M5106 1557 c-71 -40 -71 -74 1 -104 66 -27 145 -10 192 40 20 23 22
29 11 42 -41 49 -139 60 -204 22z"/>
<path d="M4565 1361 c6 -11 4 -13 -7 -8 -9 3 -33 -7 -57 -24 -39 -30 -97 -63
-175 -101 -41 -21 -39 -32 7 -43 21 -6 27 -4 27 9 0 10 8 16 23 16 26 0 53
-15 40 -23 -5 -3 -15 -2 -23 4 -20 12 -30 11 -30 -1 0 -5 9 -10 21 -10 12 0
17 -4 13 -11 -3 -6 6 -3 22 7 26 17 28 17 15 1 -7 -9 -11 -26 -8 -37 4 -17 2
-18 -14 -9 -20 10 -22 7 -20 -26 1 -18 0 -18 -9 -3 -11 18 -47 17 -42 -2 1 -6
11 -24 21 -38 10 -15 30 -46 45 -69 19 -29 36 -43 54 -45 l27 -3 -25 -14 c-15
-9 -25 -10 -28 -3 -2 6 -23 -1 -49 -16 -26 -14 -43 -20 -39 -13 12 19 -13 41
-48 41 -20 0 -26 3 -18 9 10 6 11 18 3 52 -5 24 -8 45 -5 48 2 2 4 -1 4 -9 0
-10 3 -10 14 -1 10 8 16 9 21 1 4 -6 1 -9 -6 -8 -7 2 -14 -5 -17 -14 -2 -12 3
-16 17 -15 27 2 27 24 0 62 -12 17 -18 22 -15 12 5 -14 2 -17 -12 -13 -25 8
-54 -24 -42 -44 14 -21 12 -30 -4 -30 -22 0 -26 -27 -7 -44 10 -9 21 -13 24
-9 4 3 7 -1 7 -10 0 -10 8 -17 19 -17 30 0 33 -27 4 -46 -26 -16 -27 -16 -49
10 -26 29 -39 34 -30 10 3 -9 2 -12 -5 -9 -6 4 -8 13 -5 20 2 7 -1 18 -7 24
-24 24 -23 9 1 -43 23 -48 29 -53 48 -45 25 9 51 -12 39 -31 -4 -6 22 3 57 21
64 32 88 48 55 36 -12 -4 -16 -3 -11 4 3 6 17 8 31 4 14 -3 22 -2 19 3 -3 5 9
13 27 17 28 6 29 8 12 15 -17 6 -12 9 25 20 25 7 51 14 58 16 8 2 10 9 6 16
-6 9 -9 9 -12 0 -6 -19 -32 -14 -32 7 0 21 23 22 42 3 27 -27 44 -10 40 41 -1
9 3 17 9 17 5 0 8 -4 5 -9 -4 -5 0 -12 6 -14 10 -4 9 -8 -2 -16 -8 -6 -10 -11
-5 -11 18 0 36 17 33 30 -2 8 5 16 16 18 11 2 16 0 12 -7 -4 -6 7 -3 23 7 17
9 31 20 31 25 0 4 6 7 13 7 8 0 21 8 30 18 15 17 15 19 -2 34 -11 9 -23 13
-27 10 -4 -4 -4 -2 0 5 7 13 -13 53 -28 53 -4 0 -3 -7 4 -15 7 -9 10 -18 8
-21 -3 -3 -16 9 -29 27 -18 26 -20 31 -6 26 14 -5 13 -1 -5 23 -12 17 -25 30
-29 30 -4 0 -9 9 -12 20 -3 11 -10 20 -16 20 -6 0 -1 -16 10 -35 20 -33 19
-55 -2 -55 -5 0 -9 16 -9 35 0 22 -5 35 -13 35 -7 0 -13 9 -13 19 0 11 4 17 8
15 4 -3 8 -1 8 5 0 22 -18 19 -28 -4 -7 -14 -20 -25 -29 -24 -15 0 -15 2 -3 7
17 8 21 75 6 89 -5 5 -6 2 -1 -6z m-50 -81 c-3 -5 -14 -10 -23 -9 -14 0 -13 2
3 9 27 11 27 11 20 0z m-82 -20 c-3 -11 -12 -20 -19 -20 -18 0 -18 5 2 24 20
21 23 20 17 -4z m90 -22 c-10 -17 9 -29 25 -16 15 11 15 11 5 -3 -7 -9 -11
-18 -8 -21 3 -3 -3 -11 -12 -19 -16 -13 -17 -12 -4 4 7 9 12 17 10 18 -32 6
-39 5 -39 -4 0 -8 -3 -7 -9 1 -4 8 -11 13 -15 13 -3 -1 -5 2 -5 7 4 21 11 27
33 27 13 0 22 -3 19 -7z m-157 -13 c-15 -8 -33 -15 -40 -15 -16 0 36 28 54 29
8 0 2 -6 -14 -14z m241 -27 c-3 -7 -5 -2 -5 12 0 14 2 19 5 13 2 -7 2 -19 0
-25z m-123 -44 c3 -8 2 -12 -4 -9 -6 3 -10 10 -10 16 0 14 7 11 14 -7z m70 8
c2 -4 -5 -9 -17 -9 -17 -2 -19 0 -7 7 18 12 18 12 24 2z m-121 -73 c-7 -24
-19 -16 -25 15 -4 21 -2 23 12 14 10 -7 15 -19 13 -29z m63 16 c-1 -8 -6 -18
-11 -22 -4 -4 -5 -2 -1 5 4 7 2 12 -6 12 -9 0 -9 3 2 10 19 12 19 13 16 -5z
m232 1 c7 -4 10 -11 7 -16 -6 -10 -55 8 -55 20 0 9 32 6 48 -4z m-118 -41 c-5
-6 -6 -16 -2 -20 4 -5 -1 -5 -10 -2 -11 4 -18 2 -18 -5 0 -6 -2 -9 -5 -6 -10
9 20 56 32 51 10 -4 10 -9 3 -18z m152 3 c-6 -6 -15 -8 -19 -4 -4 4 -1 11 7
16 19 12 27 3 12 -12z m-336 -23 c21 -20 31 -33 22 -29 -11 3 -18 1 -18 -5 0
-6 5 -11 12 -11 6 0 9 -2 6 -5 -8 -8 -36 5 -42 20 -3 10 0 12 12 9 10 -3 6 4
-10 18 -24 20 -35 38 -25 38 2 0 21 -16 43 -35z m288 -6 c-3 -5 -10 -7 -15 -3
-5 3 -7 10 -3 15 3 5 10 7 15 3 5 -3 7 -10 3 -15z m-442 -81 c-6 -6 -15 -8
-19 -4 -4 4 -1 11 7 16 19 12 27 3 12 -12z m188 12 c0 -5 -4 -10 -10 -10 -5 0
-10 5 -10 10 0 6 5 10 10 10 6 0 10 -4 10 -10z m-40 -75 c-13 -16 -40 -21 -40
-7 0 8 42 30 49 25 2 -1 -2 -9 -9 -18z m-60 -41 c0 -17 -44 -36 -65 -27 -21 8
-14 24 15 35 23 9 23 8 5 -12 -21 -23 -9 -26 19 -5 10 8 15 19 10 26 -4 8 -3
10 4 5 7 -4 12 -14 12 -22z m-120 7 c0 -6 -4 -13 -10 -16 -5 -3 -10 1 -10 9 0
9 5 16 10 16 6 0 10 -4 10 -9z"/>
<path d="M1941 1347 c-6 -6 -11 -21 -11 -33 0 -12 -7 -27 -15 -34 -12 -10 -13
-15 -4 -20 8 -6 8 -9 0 -14 -6 -4 -11 -2 -11 3 0 6 -5 11 -11 11 -5 0 -7 -5
-4 -10 4 -6 3 -9 -2 -8 -13 4 -65 -50 -58 -61 3 -6 -1 -11 -9 -11 -9 0 -16 -7
-16 -15 0 -8 -8 -15 -17 -15 -13 0 -14 3 -5 12 7 7 12 17 12 23 0 5 -9 -1 -19
-14 -19 -25 -17 -49 3 -64 7 -4 2 -9 -11 -13 -28 -8 -29 -15 -3 -37 22 -19 35
-22 25 -7 -3 6 -1 10 5 10 6 0 10 -7 8 -15 -2 -9 14 -25 36 -39 37 -22 43 -23
83 -11 37 11 43 11 43 -2 0 -8 -4 -12 -9 -8 -12 7 -33 -29 -24 -39 10 -10 25
-7 18 4 -3 6 -1 10 4 10 6 0 11 -7 11 -15 0 -19 11 -19 36 1 19 15 19 15 -1
11 -30 -6 -29 26 1 80 13 24 24 53 24 64 0 11 4 18 10 14 5 -3 16 7 24 23 13
26 13 31 0 51 -18 24 -7 29 11 4 11 -14 13 -12 23 17 7 18 9 37 5 43 -3 5 9
-1 28 -14 19 -13 36 -25 38 -26 2 -1 -9 -19 -24 -39 -21 -27 -25 -38 -15 -47
6 -7 11 -7 10 -2 -4 17 0 29 15 49 13 17 15 17 31 1 13 -13 19 -14 25 -4 4 7
5 17 2 22 -3 5 4 4 16 -2 11 -7 21 -17 21 -22 0 -6 7 -9 14 -6 9 4 17 -2 21
-14 4 -10 14 -19 23 -19 13 0 13 3 -4 16 -19 15 -19 16 1 9 11 -4 31 -10 45
-12 20 -4 22 -2 10 6 -8 6 -23 11 -32 11 -10 0 -18 5 -18 12 0 6 -3 9 -6 5 -4
-3 -13 1 -21 9 -8 8 -19 12 -24 9 -5 -3 -19 3 -31 15 -14 13 -29 18 -41 14
-13 -4 -17 -2 -13 5 5 7 1 8 -10 4 -13 -5 -15 -3 -9 7 5 9 4 11 -4 6 -7 -5
-20 3 -32 18 -20 25 -21 25 -44 8 -14 -9 -22 -23 -20 -30 3 -7 0 -10 -5 -7
-17 11 -11 42 11 51 20 9 20 10 -8 24 -15 8 -42 24 -59 36 -23 17 -34 20 -43
11z m16 -19 c-3 -8 -6 -5 -6 6 -1 11 2 17 5 13 3 -3 4 -12 1 -19z m47 -23 c11
-8 17 -18 13 -21 -3 -3 -16 3 -28 15 -26 24 -14 28 15 6z m-49 -25 c4 -6 11
-7 17 -4 6 4 8 2 5 -4 -8 -12 -47 -4 -47 9 0 12 17 11 25 -1z m118 -50 c-3
-12 -8 -19 -11 -16 -5 6 5 36 12 36 2 0 2 -9 -1 -20z m-138 -40 c3 -5 1 -10
-4 -10 -6 0 -11 5 -11 10 0 6 2 10 4 10 3 0 8 -4 11 -10z m69 4 c9 -3 16 -13
16 -21 0 -8 -4 -11 -10 -8 -5 3 -10 1 -10 -6 0 -20 -14 -1 -15 21 -2 23 -2 22
19 14z m-114 -52 c0 -5 -6 -16 -14 -27 -14 -19 -71 -24 -88 -7 -5 5 4 7 22 4
18 -3 30 0 30 7 0 6 9 11 21 11 11 0 17 5 14 10 -3 6 -1 10 4 10 6 0 11 -4 11
-8z m92 -96 c-6 -10 -20 20 -21 44 0 8 6 4 13 -10 8 -14 12 -29 8 -34z m-62
30 c0 -2 -11 -6 -25 -8 -13 -3 -22 -1 -19 3 5 9 44 13 44 5z m4 -49 c-9 -25
-43 -22 -41 3 1 13 5 16 11 10 16 -16 26 -12 19 8 -4 13 -3 14 6 6 6 -6 9 -18
5 -27z m33 18 c0 -8 -4 -12 -9 -9 -5 3 -6 10 -3 15 9 13 12 11 12 -6z m-92
-25 c-4 -6 -1 -18 6 -26 10 -12 9 -13 -5 -8 -9 3 -16 13 -16 21 0 8 -5 11 -12
7 -7 -4 -8 -3 -4 4 4 7 14 12 22 12 8 0 12 -5 9 -10z"/>
<path d="M1867 1283 c-25 -31 -44 -59 -42 -62 3 -2 14 8 26 22 11 15 27 27 35
27 8 0 14 8 14 18 0 10 5 23 12 30 6 6 9 14 6 17 -3 3 -26 -20 -51 -52z"/>
<path d="M4223 1171 c-17 -11 -35 -17 -39 -13 -4 4 -4 1 1 -7 6 -10 2 -12 -13
-7 -15 5 -25 1 -34 -13 -7 -12 -16 -21 -21 -21 -4 0 -6 4 -3 9 4 5 -50 -9
-118 -32 -68 -23 -118 -43 -110 -45 8 -2 14 -7 14 -12 0 -5 3 -15 6 -24 3 -9
1 -16 -5 -16 -6 0 -11 9 -11 19 0 18 -45 39 -58 26 -3 -3 2 -5 11 -5 21 0 22
-16 1 -24 -8 -3 -13 -2 -10 3 7 10 -17 21 -42 21 -12 -1 -10 -5 8 -16 17 -11
19 -13 5 -9 -44 14 -85 17 -85 6 0 -6 -8 -10 -17 -9 -10 1 -49 -2 -88 -7 -62
-8 -66 -10 -35 -15 19 -3 40 -3 45 0 6 4 28 7 50 7 34 1 35 0 10 -5 -29 -5
-28 -6 20 -19 49 -12 49 -13 8 -8 -23 3 -47 7 -55 10 -10 4 -14 -2 -14 -19 0
-23 3 -24 40 -20 22 3 47 9 57 15 27 14 37 11 45 -13 6 -21 7 -21 21 5 7 15
20 27 29 27 8 0 17 6 20 13 5 15 34 19 34 6 0 -5 7 -6 15 -3 8 4 15 14 15 23
0 12 2 13 9 3 5 -9 17 -11 34 -7 15 4 25 11 22 15 -3 5 0 12 6 16 8 5 9 3 4
-5 -5 -9 -2 -12 11 -9 31 6 17 23 -28 34 l-43 10 38 8 c21 4 45 3 55 -3 10 -6
12 -11 4 -11 -10 0 -10 -3 0 -14 7 -7 19 -11 26 -8 10 3 10 7 3 12 -8 4 -5 13
9 25 16 14 22 15 35 5 8 -7 22 -9 32 -5 15 6 12 10 -17 20 -33 13 -33 14 -8
14 14 1 32 3 40 4 7 2 10 2 5 0 -17 -10 6 -23 31 -17 16 3 22 2 15 -3 -8 -6
-4 -12 13 -20 22 -10 23 -10 13 10 -9 17 -8 23 7 34 17 13 16 14 -11 8 -28 -5
-28 -5 -6 5 13 6 32 8 42 5 21 -7 26 10 7 19 -7 3 1 4 17 0 29 -5 29 -5 10 10
-18 15 -18 16 -1 9 13 -4 17 -2 14 8 -7 22 -49 22 -85 0z m17 -21 c-19 -13
-30 -13 -30 0 0 6 10 10 23 10 18 0 19 -2 7 -10z m-160 -60 c0 -5 -4 -10 -10
-10 -5 0 -10 5 -10 10 0 6 5 10 10 10 6 0 10 -4 10 -10z m-306 -99 c3 -5 -1
-12 -10 -15 -27 -10 -44 -7 -44 9 0 16 45 21 54 6z"/>
<path d="M2150 1145 c-14 -16 -3 -20 19 -6 8 5 9 11 3 15 -5 3 -15 -1 -22 -9z"/>
<path d="M1211 1136 c-9 -11 -4 -18 25 -35 l37 -22 -34 -23 c-19 -13 -71 -42
-117 -65 l-82 -43 24 -19 c31 -24 31 -24 70 6 58 44 95 3 56 -62 -21 -36 -21
-36 -2 -56 23 -22 42 -15 42 15 0 27 73 198 84 198 6 0 20 -10 32 -21 13 -12
30 -19 39 -16 11 5 -2 22 -52 69 -38 34 -74 68 -81 75 -17 17 -27 16 -41 -1z
m38 -150 c-13 -28 -24 -33 -35 -14 -4 6 3 19 16 30 28 23 34 18 19 -16z"/>
<path d="M5338 1090 c-41 -42 -48 -56 -48 -89 0 -28 8 -49 26 -70 22 -26 33
-31 70 -31 56 0 101 19 137 58 25 26 27 32 16 50 -12 19 -14 19 -31 -19 -21
-48 -77 -77 -115 -60 -34 16 -28 34 22 70 44 32 51 44 39 75 -5 12 -13 6 -35
-27 -58 -87 -92 -97 -92 -26 0 40 41 79 84 79 27 0 28 2 17 20 -19 31 -37 25
-90 -30z"/>
<path d="M2232 1123 c-13 -3 -19 -9 -16 -15 5 -7 1 -9 -9 -5 -8 3 -33 -3 -54
-13 -35 -17 -39 -23 -37 -52 1 -18 2 -45 3 -60 0 -18 7 -28 16 -28 8 0 15 -8
15 -17 0 -15 -2 -16 -10 -3 -5 8 -10 10 -10 4 0 -6 7 -17 15 -24 12 -10 16 -9
21 3 3 9 2 22 -2 29 -6 11 -5 11 8 0 15 -12 15 -15 0 -42 -16 -27 -18 -28 -49
-15 -29 12 -34 12 -41 -2 -7 -12 -11 -13 -17 -2 -5 7 -4 14 3 17 7 2 12 13 12
25 0 20 -1 20 -13 2 -13 -17 -14 -17 -20 4 -4 16 -1 21 16 22 17 1 18 2 5 6
-20 5 -23 18 -8 28 6 3 10 13 10 21 0 27 -19 4 -30 -36 -6 -22 -15 -40 -20
-40 -5 0 -8 -9 -7 -19 1 -13 19 -29 57 -47 30 -15 67 -33 82 -41 17 -9 29 -10
33 -3 3 5 15 10 27 10 17 0 18 -2 8 -15 -15 -18 -15 -19 27 -33 26 -9 33 -8
37 5 4 9 4 18 1 21 -3 3 -5 0 -5 -6 0 -7 -4 -12 -9 -12 -6 0 -8 10 -5 23 2 12
7 36 10 53 8 45 -11 50 -36 9 -12 -19 -24 -34 -28 -33 -4 1 -15 -2 -24 -6 -21
-9 -48 -1 -48 14 0 6 10 9 23 7 12 -2 16 -2 9 0 -9 3 -8 12 5 34 10 16 20 29
24 29 13 0 89 109 80 114 -17 11 -69 -15 -75 -37 -3 -11 -8 -18 -12 -14 -4 3
-15 2 -24 -3 -13 -7 -21 -5 -30 5 -9 11 -9 15 -1 15 6 0 11 -6 11 -12 0 -10 2
-10 9 0 4 8 11 13 15 13 20 -3 26 0 21 10 -4 6 1 13 11 15 26 7 49 55 31 66
-13 8 -7 10 31 10 22 0 22 0 1 5 -18 4 -19 7 -8 14 14 9 10 9 -29 2z m-32 -48
c16 -20 14 -21 -39 -28 -29 -4 -40 -2 -30 4 12 7 12 9 -1 9 -13 0 -13 1 0 10
9 6 18 6 24 0 15 -15 26 -12 20 5 -8 20 10 19 26 0z m50 -69 c0 -3 -4 -8 -10
-11 -5 -3 -10 -1 -10 4 0 6 5 11 10 11 6 0 10 -2 10 -4z m-20 -36 c0 -5 -4
-10 -10 -10 -5 0 -10 5 -10 10 0 6 5 10 10 10 6 0 10 -4 10 -10z m29 -109 c-6
-18 -14 -30 -17 -27 -2 3 1 19 8 36 16 40 23 33 9 -9z m-144 9 c3 -5 -3 -10
-15 -10 -12 0 -18 5 -15 10 3 6 10 10 15 10 5 0 12 -4 15 -10z"/>
<path d="M2384 1116 c19 -15 19 -16 1 -16 -10 0 -27 -8 -37 -17 -14 -12 -21
-14 -30 -5 -8 8 -4 13 16 18 14 3 26 10 26 15 0 15 -37 10 -43 -5 -3 -8 -16
-16 -29 -18 -17 -2 -6 -9 42 -27 36 -13 70 -28 76 -33 6 -4 14 -5 17 -1 4 3
13 0 21 -6 20 -16 79 -5 72 14 -3 10 2 10 24 2 16 -6 27 -14 24 -18 -2 -4 5
-10 16 -14 11 -3 20 -10 20 -15 0 -5 -8 -7 -17 -3 -14 4 -15 3 -7 -6 13 -14
124 -18 164 -7 20 6 22 5 10 -4 -12 -9 -5 -10 30 -6 32 4 39 3 25 -3 -17 -8
-18 -10 -2 -10 9 -1 17 -5 17 -11 0 -13 -17 -13 -25 1 -4 6 -13 8 -21 5 -8 -3
-25 -1 -38 6 -14 6 -37 7 -53 3 -15 -4 -22 -10 -15 -12 6 -3 12 -9 12 -14 0
-6 -5 -7 -12 -3 -8 5 -9 2 -5 -10 4 -10 7 -21 7 -24 0 -4 7 4 16 16 18 26 71
30 136 10 45 -13 57 -32 39 -61 -11 -16 -11 -21 0 -28 8 -4 23 -15 34 -24 20
-16 20 -16 -5 -12 -14 2 -33 8 -42 12 -13 5 -16 2 -11 -17 3 -16 2 -19 -5 -9
-7 9 -12 10 -16 2 -5 -8 -17 -7 -42 4 -23 9 -42 11 -57 5 -12 -5 -17 -9 -10
-9 7 -1 10 -7 7 -15 -8 -21 40 -50 71 -42 14 4 25 13 25 21 0 8 4 15 9 15 12
0 22 -30 14 -42 -3 -7 -1 -8 5 -4 14 9 15 1 2 -23 -8 -15 -17 -17 -56 -11 -26
4 -56 5 -67 2 -14 -4 -18 -1 -13 7 4 6 2 18 -4 27 -10 11 -16 12 -28 2 -13
-11 -14 -10 -8 9 4 12 2 24 -4 28 -5 3 -10 23 -10 43 0 50 -17 24 -26 -40 -4
-26 -13 -49 -20 -52 -8 -3 -14 -1 -14 3 0 5 -9 7 -20 4 -14 -4 -20 0 -20 11 0
9 -4 16 -10 16 -5 0 -10 -5 -10 -12 0 -6 -2 -9 -5 -7 -2 3 -2 15 2 28 3 14 8
18 13 11 5 -8 11 -6 20 5 10 12 10 15 -2 15 -9 0 -19 17 -25 45 -10 42 -2 63
11 30 3 -8 12 -12 21 -9 8 3 15 1 15 -6 0 -6 -4 -9 -9 -6 -5 3 -11 -5 -13 -19
-3 -16 -1 -25 7 -25 15 0 29 65 19 82 -4 7 -3 8 4 4 7 -4 12 -1 12 8 0 10 -6
13 -15 10 -9 -4 -15 0 -15 9 0 8 -7 18 -16 21 -30 12 -36 6 -13 -14 13 -10 19
-19 12 -20 -6 0 -19 -3 -29 -7 -11 -4 -15 -3 -10 5 3 6 2 13 -3 16 -9 6 -14
-11 -26 -90 -4 -28 -2 -44 6 -50 7 -4 10 -3 6 3 -4 6 0 16 8 23 13 11 14 10 9
-6 -12 -32 -42 -56 -51 -41 -4 6 -14 12 -20 13 -7 1 -19 2 -26 3 -8 0 -22 19
-33 40 -15 31 -20 36 -26 23 -6 -16 -7 -16 -7 0 -1 20 15 33 24 19 3 -6 12 -8
20 -5 10 4 12 -1 8 -18 -4 -18 -3 -20 6 -8 6 8 11 25 11 38 0 13 4 20 10 17
14 -8 13 8 -1 22 -7 7 -9 22 -4 40 l8 28 7 -25 c8 -25 8 -25 9 -2 1 13 6 20
11 17 6 -3 10 -1 10 5 0 6 -14 9 -37 6 -21 -3 -44 -5 -50 -5 -8 -1 -13 -15
-13 -34 0 -18 -6 -42 -14 -53 -13 -17 -14 -15 -9 26 3 25 9 52 14 61 5 9 3 21
-3 27 -18 18 3 14 24 -5 16 -14 18 -14 18 -1 0 13 -27 27 -52 28 -4 0 -7 -12
-7 -27 0 -16 -2 -61 -5 -101 -2 -46 0 -75 7 -79 7 -4 0 -12 -17 -18 l-29 -12
32 -11 c18 -7 31 -7 31 -1 0 5 -5 9 -12 9 -6 0 -9 2 -6 5 10 10 37 -7 32 -20
-6 -15 37 -28 50 -15 13 13 36 13 36 0 0 -5 -8 -10 -17 -11 -10 0 11 -9 47
-20 36 -11 76 -17 90 -14 17 4 20 3 12 -3 -11 -7 -10 -10 3 -16 24 -9 47 -7
41 3 -4 5 0 12 6 14 7 3 5 6 -6 6 -11 1 -17 3 -14 6 3 4 17 3 32 -1 29 -7 36
-34 9 -35 -10 0 9 -7 42 -15 33 -8 66 -13 75 -10 10 2 8 4 -5 5 -11 0 -26 10
-32 20 -12 18 -10 19 25 14 47 -7 54 -13 16 -14 -25 0 -26 -2 -9 -9 11 -4 31
-6 45 -3 l25 4 -25 -15 c-25 -15 -24 -15 25 -18 28 -1 74 -2 104 -1 36 0 49
-2 40 -9 -9 -6 11 -7 54 -3 41 3 74 2 81 -4 8 -6 77 -8 191 -4 129 5 175 9
163 17 -15 9 -15 12 4 28 26 22 48 23 48 3 0 -10 -10 -15 -27 -16 -58 -1 11
-18 77 -18 49 -1 61 2 50 10 -12 8 -9 9 11 5 15 -3 49 -1 75 5 27 5 57 10 67
10 9 0 17 5 17 10 0 6 8 8 18 5 9 -3 31 -1 47 4 l30 10 -31 -3 c-32 -3 -44 19
-15 27 34 10 96 16 76 8 -18 -8 -17 -9 7 -15 24 -6 48 -1 98 20 18 8 17 7 60
17 19 5 40 12 45 16 6 4 36 15 67 24 43 12 56 20 52 31 -4 8 -10 13 -14 10 -5
-3 -12 -1 -15 5 -4 6 -23 9 -43 8 -28 -2 -36 1 -34 11 3 15 -15 31 -35 31 -7
0 -13 -4 -13 -10 0 -5 7 -7 15 -4 11 5 15 -1 15 -25 0 -27 -4 -32 -29 -37 -17
-4 -32 -12 -35 -20 -6 -16 -36 -19 -36 -4 0 6 8 10 18 10 14 0 15 2 2 10 -11
7 -19 5 -29 -10 -7 -11 -20 -20 -27 -20 -11 0 -13 -7 -8 -26 5 -20 3 -25 -7
-22 -8 3 -13 12 -11 22 2 9 -1 16 -5 16 -4 0 -8 45 -8 101 0 55 -2 102 -6 105
-3 2 -15 -6 -25 -17 -16 -18 -16 -19 -1 -13 19 7 23 -6 6 -23 -13 -13 -30 -1
-42 27 -4 9 -6 5 -5 -10 2 -14 -1 -31 -6 -38 -4 -7 -5 -16 -2 -19 3 -4 6 -1 6
5 0 7 5 12 11 12 5 0 8 -4 5 -8 -3 -5 4 -18 14 -30 24 -25 26 -42 5 -42 -13 0
-19 11 -17 32 1 3 -5 9 -13 12 -12 4 -15 -6 -15 -58 0 -49 -4 -65 -16 -70 -25
-9 -54 -7 -54 5 0 5 5 7 10 4 13 -8 13 -1 -1 46 -7 21 -16 36 -22 32 -6 -3 -7
-1 -3 5 4 7 2 20 -4 29 -9 14 -10 8 -7 -30 3 -26 0 -50 -5 -53 -5 -3 -4 -12 3
-20 6 -8 10 -16 8 -17 -2 -2 -16 -11 -31 -20 -27 -17 -28 -17 -28 3 0 11 -5
20 -11 20 -5 0 -8 4 -5 9 11 16 -5 40 -22 34 -12 -5 -14 -2 -9 11 10 26 -18
87 -38 80 -8 -4 -15 -11 -14 -18 1 -6 1 -16 0 -23 -1 -17 -42 -53 -52 -47 -9
5 -29 -27 -29 -46 0 -6 10 -10 23 -8 12 2 22 10 22 20 0 18 35 61 43 53 3 -3
-3 -14 -13 -25 -24 -27 -12 -37 13 -12 l21 21 10 -30 c11 -32 20 -38 17 -13 0
9 4 19 10 21 17 6 4 -49 -15 -65 -10 -8 -10 -11 -2 -6 9 4 12 3 7 -4 -4 -7
-17 -8 -39 -1 -40 11 -47 11 -47 -1 0 -5 12 -10 28 -11 22 0 24 -2 8 -8 -22
-9 -67 9 -59 23 4 5 1 6 -5 2 -15 -9 -61 13 -96 46 -16 15 -32 25 -36 23 -4
-2 -5 7 -2 20 3 19 1 24 -11 20 -18 -8 -29 17 -15 36 8 11 9 10 4 -3 -3 -12 0
-18 10 -18 11 0 14 6 10 16 -3 9 -6 18 -6 20 0 2 -16 4 -35 4 -29 0 -35 -4
-35 -22 0 -20 1 -21 13 -4 12 16 13 14 9 -18 -2 -20 -8 -33 -13 -30 -5 3 -9
-6 -9 -20 0 -14 5 -28 12 -32 7 -5 9 0 6 14 -4 15 -2 19 9 15 8 -3 12 -12 9
-19 -3 -8 -1 -14 4 -14 6 0 10 8 10 18 0 13 2 14 9 3 5 -7 14 -10 21 -6 9 6 9
3 0 -14 -6 -12 -25 -25 -43 -28 -31 -7 -32 -7 -7 -14 24 -7 24 -7 3 -8 -24 -1
-32 -17 -10 -19 6 -1 28 -5 47 -10 24 -7 28 -10 13 -11 -12 -1 -43 6 -68 14
-25 9 -49 13 -54 10 -5 -3 -12 1 -14 7 -3 8 -6 9 -6 2 -2 -20 -51 -3 -51 17 0
11 4 19 9 19 5 0 16 3 25 6 9 3 16 2 16 -4 0 -5 -10 -13 -22 -17 -15 -4 -18
-8 -10 -12 30 -12 41 17 39 98 l-2 80 -29 -3 c-24 -2 -31 1 -36 22 -4 18 -17
28 -52 39 -53 16 -78 10 -78 -18 0 -24 44 -56 61 -45 8 4 9 3 5 -4 -4 -7 -3
-12 3 -12 5 0 12 6 15 13 4 6 5 3 3 -8 -1 -11 8 -31 21 -45 l24 -25 -6 35 c-5
30 -5 32 4 11 11 -24 -1 -81 -22 -107 -5 -7 -8 -16 -7 -20 4 -23 -4 -29 -44
-31 -38 -1 -39 0 -12 7 41 11 2 11 -52 1 -24 -5 -40 -4 -37 0 3 5 -2 9 -10 9
-9 0 -16 -4 -16 -10 0 -5 -3 -10 -8 -10 -4 0 -6 18 -4 41 4 36 7 40 26 34 52
-17 86 -18 86 -1 0 9 5 16 11 16 5 0 7 -4 4 -10 -3 -6 1 -7 10 -4 26 10 13 39
-15 37 -14 -1 -19 0 -12 3 6 3 12 9 12 13 0 13 -58 41 -74 35 -11 -4 -15 -2
-11 8 8 21 -21 44 -38 30 -10 -9 -12 -4 -12 22 2 41 11 57 30 49 8 -3 15 0 15
6 0 24 71 43 129 35 31 -4 60 -7 64 -5 5 1 6 -3 3 -8 -4 -5 4 -12 16 -14 20
-4 19 -4 -4 -6 -28 -1 -37 -14 -17 -26 16 -10 140 5 134 16 -4 5 1 9 9 9 8 0
18 -5 21 -10 4 -6 15 -8 26 -5 14 5 17 3 13 -9 -8 -20 5 -20 30 -1 19 14 19
15 1 15 -10 0 -15 3 -11 7 10 11 36 12 36 2 0 -16 39 -10 49 9 9 15 12 15 21
2 6 -10 10 -11 10 -2 0 6 5 12 11 12 5 0 7 -4 4 -10 -3 -5 3 -10 14 -10 12 0
21 3 22 8 6 45 5 60 -5 54 -6 -3 -24 -5 -40 -3 -21 2 -27 -1 -24 -11 5 -11 -4
-12 -51 -3 l-56 10 40 7 c22 4 6 4 -35 1 -130 -9 -505 -1 -518 11 -9 10 -23 6
-17 -4 4 -6 -11 -4 -32 4 -21 8 -65 19 -98 24 -33 6 -69 14 -80 18 -12 4 -17
3 -12 -2 5 -5 25 -14 45 -20 32 -10 33 -12 11 -13 -32 -1 -79 20 -79 37 0 6
-8 12 -17 12 -10 0 -47 9 -81 20 -62 20 -123 27 -72 9 19 -7 16 -7 -13 -3 -26
3 -37 2 -32 -5 3 -6 0 -8 -8 -5 -8 3 -18 1 -22 -5 -3 -6 -12 -11 -18 -11 -7 0
-3 7 8 16 16 12 17 16 6 23 -10 7 -10 10 -1 16 7 4 16 2 20 -5 4 -7 14 -10 21
-7 14 5 -31 28 -81 41 -24 7 -24 6 -6 -8z m231 -76 c13 -5 14 -9 5 -9 -8 0
-24 4 -35 9 -13 5 -14 9 -5 9 8 0 24 -4 35 -9z m-125 -10 c0 -5 -4 -10 -9 -10
-6 0 -13 5 -16 10 -3 6 1 10 9 10 9 0 16 -4 16 -10z m177 -6 c-3 -3 -12 -4
-19 -1 -8 3 -5 6 6 6 11 1 17 -2 13 -5z m170 -40 c-3 -3 -12 -4 -19 -1 -8 3
-5 6 6 6 11 1 17 -2 13 -5z m58 -14 c3 -5 -1 -10 -9 -10 -8 0 -18 5 -21 10 -3
6 1 10 9 10 8 0 18 -4 21 -10z m214 -16 c2 -2 -9 -4 -26 -4 -18 0 -33 -6 -36
-14 -8 -20 -48 -16 -44 4 2 12 -8 15 -48 13 -45 -1 -47 -1 -15 6 32 8 160 3
169 -5z m138 0 c-3 -3 -12 -4 -19 -1 -8 3 -5 6 6 6 11 1 17 -2 13 -5z m198 -4
c-3 -5 -15 -15 -26 -20 -16 -9 -19 -7 -19 10 0 15 7 20 26 20 14 0 22 -4 19
-10z m-534 -10 c5 0 9 -4 9 -9 0 -12 -38 -2 -47 12 -4 7 0 8 11 4 10 -4 22 -7
27 -7z m604 -1 c-8 -11 -55 -12 -55 -1 0 5 14 9 30 10 17 0 28 -4 25 -9z m102
-11 c-3 -8 -6 -5 -6 6 -1 11 2 17 5 13 3 -3 4 -12 1 -19z m-762 2 c3 -5 2 -10
-4 -10 -5 0 -13 5 -16 10 -3 6 -2 10 4 10 5 0 13 -4 16 -10z m492 -6 c-3 -3
-12 -4 -19 -1 -8 3 -5 6 6 6 11 1 17 -2 13 -5z m-427 -25 c0 -5 -5 -9 -12 -9
-9 0 -9 -3 0 -12 15 -15 16 -31 1 -22 -6 3 -15 0 -20 -7 -5 -9 -8 1 -6 27 1
34 4 40 19 36 10 -2 18 -8 18 -13z m433 4 c-7 -2 -19 -2 -25 0 -7 3 -2 5 12 5
14 0 19 -2 13 -5z m-86 -9 c-3 -3 -12 -4 -19 -1 -8 3 -5 6 6 6 11 1 17 -2 13
-5z m-137 -14 c0 -5 -5 -10 -11 -10 -5 0 -7 5 -4 10 3 6 8 10 11 10 2 0 4 -4
4 -10z m37 -9 c-10 -4 -18 -11 -18 -16 1 -10 -2 -10 -31 -6 -16 2 32 29 52 29
10 1 9 -2 -3 -7z m-767 -5 c0 -3 -4 -8 -10 -11 -5 -3 -10 -1 -10 4 0 6 5 11
10 11 6 0 10 -2 10 -4z m816 -12 c-3 -9 -6 -18 -6 -21 0 -3 -7 0 -15 7 -13 11
-13 15 -3 21 21 13 31 10 24 -7z m-176 -49 c-7 -8 -17 -15 -22 -15 -6 0 -5 7
2 15 7 8 17 15 22 15 6 0 5 -7 -2 -15z m220 -5 c5 9 9 8 13 -3 4 -10 0 -14
-11 -13 -9 2 -17 8 -18 15 -2 8 -1 8 3 0 4 -8 7 -8 13 1z m960 -12 c0 -9 -23
-16 -37 -10 -21 7 -14 17 12 17 14 0 25 -3 25 -7z m-1840 -8 c0 -5 -4 -10 -10
-10 -5 0 -10 5 -10 10 0 6 5 10 10 10 6 0 10 -4 10 -10z m380 -11 c0 -6 -4 -7
-10 -4 -5 3 -10 11 -10 16 0 6 5 7 10 4 6 -3 10 -11 10 -16z m332 -15 c-5 -11
-7 -24 -5 -31 2 -6 0 -14 -5 -17 -5 -3 -7 9 -5 27 3 17 5 38 6 45 0 8 4 9 10
3 5 -5 5 -16 -1 -27z m578 26 c0 -5 -2 -10 -4 -10 -3 0 -8 5 -11 10 -3 6 -1
10 4 10 6 0 11 -4 11 -10z m485 -10 c17 -8 15 -9 -10 -7 -20 1 -29 -2 -27 -10
1 -7 -5 -13 -13 -13 -13 0 -13 3 -3 20 14 22 23 23 53 10z m-1510 -10 c3 -5 1
-10 -4 -10 -6 0 -11 5 -11 10 0 6 2 10 4 10 3 0 8 -4 11 -10z m283 -2 c-2 -6
-10 -14 -16 -16 -7 -2 -10 2 -6 12 7 18 28 22 22 4z m136 -1 c4 4 4 0 0 -10
-5 -14 -9 -15 -20 -6 -8 6 -14 16 -14 21 0 7 5 6 13 -1 8 -6 17 -8 21 -4z
m830 -2 c3 -8 1 -15 -4 -15 -6 0 -10 7 -10 15 0 8 2 15 4 15 2 0 6 -7 10 -15z
m-910 -3 c2 -4 -5 -9 -17 -9 -17 -2 -19 0 -7 7 18 12 18 12 24 2z m-200 -14
c-3 -4 -12 -8 -20 -8 -8 0 -14 4 -14 8 0 4 9 8 19 8 11 0 17 -4 15 -8z m783
-20 c-3 -8 -6 -5 -6 6 -1 11 2 17 5 13 3 -3 4 -12 1 -19z m478 7 c-22 -8 -41
-15 -42 -15 -1 0 0 6 3 13 2 7 21 14 42 15 l37 2 -40 -15z m-770 -17 c-5 -11
-55 -41 -55 -33 0 16 14 33 25 29 7 -3 16 -1 20 5 9 15 15 14 10 -1z m-265
-44 c0 -8 -4 -12 -10 -9 -5 3 -10 10 -10 16 0 5 5 9 10 9 6 0 10 -7 10 -16z
m794 2 c-10 -8 -21 -12 -24 -10 -5 6 21 24 34 24 6 0 1 -6 -10 -14z m-891 -13
c-5 -13 -3 -15 13 -9 14 5 16 4 8 -4 -7 -7 -21 -9 -34 -5 -20 6 -21 7 -3 21
23 17 24 17 16 -3z m57 -18 c0 -8 -8 -15 -17 -14 -11 0 -13 3 -5 6 6 2 10 9 6
14 -3 5 0 9 5 9 6 0 11 -7 11 -15z m290 -25 c-34 -11 -60 -11 -35 0 11 5 29 8
40 8 16 0 15 -2 -5 -8z m-67 -7 c-7 -2 -19 -2 -25 0 -7 3 -2 5 12 5 14 0 19
-2 13 -5z"/>
<path d="M1716 1093 c-6 -14 -5 -15 5 -6 7 7 10 15 7 18 -3 3 -9 -2 -12 -12z"/>
<path d="M3988 1053 c6 -2 18 -2 25 0 6 3 1 5 -13 5 -14 0 -19 -2 -12 -5z"/>
<path d="M4151 1016 c-8 -10 -9 -16 -1 -21 6 -3 8 -11 5 -16 -4 -5 -2 -9 4 -9
11 0 31 32 31 49 0 16 -26 13 -39 -3z"/>
<path d="M2516 1003 c-4 -10 -4 -14 0 -10 4 4 13 2 21 -5 20 -16 28 -2 10 17
-20 19 -23 19 -31 -2z"/>
<path d="M4064 1001 c4 -5 2 -20 -3 -33 -6 -12 -10 -17 -10 -10 -1 6 -7 12
-15 12 -8 0 -13 -8 -12 -17 2 -10 9 -18 17 -18 8 0 14 -7 14 -15 0 -32 29 -58
58 -53 30 6 34 15 12 36 -8 8 -12 17 -9 20 8 8 -35 87 -47 87 -6 0 -8 -4 -5
-9z m43 -78 c-11 -10 -27 8 -27 30 l0 21 16 -22 c9 -13 14 -26 11 -29z"/>
<path d="M4336 974 c-7 -19 1 -34 19 -34 7 0 12 8 10 18 -2 9 -4 20 -4 25 -2
13 -19 7 -25 -9z"/>
<path d="M5205 968 c-11 -6 -37 -27 -57 -46 -33 -31 -38 -42 -38 -80 0 -61 40
-102 101 -102 47 0 116 29 145 61 16 18 16 21 2 36 -15 14 -18 13 -32 -15 -9
-17 -25 -36 -35 -42 -26 -14 -82 -12 -102 3 -25 19 -51 76 -44 97 10 32 66 72
92 67 18 -3 23 -1 19 10 -3 8 -6 17 -6 19 0 8 -25 3 -45 -8z"/>
<path d="M3812 914 c-8 -27 -7 -43 3 -66 12 -31 13 -30 14 35 0 37 -1 67 -2
67 -2 0 -9 -16 -15 -36z"/>
<path d="M1985 910 c3 -5 8 -10 11 -10 2 0 4 5 4 10 0 6 -5 10 -11 10 -5 0 -7
-4 -4 -10z"/>
<path d="M3711 912 c-1 -7 -5 -10 -11 -7 -13 8 -13 -1 2 -28 6 -12 15 -35 19
-52 6 -27 7 -25 7 15 1 40 -15 105 -17 72z"/>
<path d="M1327 887 c-58 -46 -36 -146 45 -210 31 -25 40 -28 53 -17 23 19 18
27 -19 34 -64 12 -98 81 -66 134 34 55 87 68 134 31 14 -11 26 -28 26 -38 0
-25 11 -33 27 -20 21 18 16 26 -38 69 -61 48 -116 54 -162 17z"/>
<path d="M2778 883 c12 -2 20 -8 18 -12 -3 -4 1 -8 9 -8 11 0 12 4 4 14 -6 7
-21 12 -33 12 -20 -2 -20 -2 2 -6z"/>
<path d="M3020 870 c0 -19 3 -21 12 -12 9 9 9 15 0 24 -9 9 -12 7 -12 -12z"/>
<path d="M2647 874 c-4 -4 -7 -14 -7 -23 0 -11 3 -12 11 -4 6 6 10 16 7 23 -2
6 -7 8 -11 4z"/>
<path d="M2725 871 c-3 -5 3 -12 12 -14 13 -3 11 -5 -6 -6 -13 0 -21 -4 -17
-8 11 -11 106 -13 106 -2 0 5 -11 9 -24 9 -13 0 -29 7 -36 15 -14 17 -26 19
-35 6z"/>
<path d="M3535 860 c4 -6 11 -8 16 -5 14 9 11 15 -7 15 -8 0 -12 -5 -9 -10z"/>
<path d="M3565 850 c-4 -7 -19 -9 -35 -5 -17 4 -31 2 -36 -6 -5 -9 -2 -10 9
-6 10 3 17 2 17 -3 0 -6 -7 -10 -16 -10 -8 0 -12 -4 -9 -10 9 -14 31 -12 48 4
8 8 22 14 33 13 10 -1 19 4 19 12 0 18 -21 26 -30 11z m20 -10 c3 -5 1 -10 -4
-10 -6 0 -11 5 -11 10 0 6 2 10 4 10 3 0 8 -4 11 -10z"/>
<path d="M5024 836 c-18 -14 -18 -16 11 -48 17 -18 39 -44 50 -57 l20 -24 -35
7 c-19 3 -58 18 -87 32 -42 20 -56 23 -73 14 -20 -11 -19 -13 19 -57 23 -25
51 -67 63 -94 13 -26 25 -48 28 -48 3 0 14 6 24 14 18 14 17 17 -23 70 -24 31
-40 59 -38 62 8 8 76 -16 123 -43 37 -21 43 -22 54 -9 10 12 5 25 -29 70 -22
30 -49 70 -58 89 -20 40 -22 41 -49 22z"/>
<path d="M4013 825 c1 -13 11 -21 26 -23 19 -3 22 0 17 13 -3 9 -6 19 -6 21 0
2 -5 4 -11 4 -5 0 -7 -4 -4 -10 3 -5 2 -10 -4 -10 -5 0 -12 6 -15 13 -3 6 -5
3 -3 -8z"/>
<path d="M1561 796 c-9 -11 -6 -16 20 -25 32 -11 32 -11 13 -32 -10 -12 -47
-44 -81 -72 l-63 -50 27 -14 c25 -13 28 -12 51 17 20 25 26 28 44 19 20 -11
20 -20 3 -75 -5 -15 0 -23 17 -31 24 -11 24 -10 35 66 7 42 16 89 23 105 10
28 11 28 30 11 11 -10 26 -15 36 -11 21 8 13 16 -51 50 -27 15 -59 34 -71 42
-18 12 -23 13 -33 0z m49 -116 c0 -11 -7 -20 -15 -20 -18 0 -19 12 -3 28 16
16 18 15 18 -8z"/>
<path d="M2300 794 c0 -8 5 -12 10 -9 6 4 8 11 5 16 -9 14 -15 11 -15 -7z"/>
<path d="M3495 760 c-3 -4 1 -13 9 -19 10 -8 16 -8 25 3 9 11 7 15 -9 19 -11
3 -22 2 -25 -3z"/>
<path d="M4856 732 c-3 -5 -34 -23 -71 -42 -45 -23 -65 -39 -65 -51 0 -23 13
-24 30 -4 7 8 18 15 24 15 13 0 36 -102 36 -157 0 -38 6 -43 35 -29 19 8 23
16 18 31 -23 67 9 97 51 48 22 -26 26 -27 50 -14 l26 14 -23 15 c-38 26 -137
114 -137 121 0 4 11 13 25 19 14 6 25 18 25 27 0 16 -15 20 -24 7z m4 -133 c0
-5 -7 -9 -15 -9 -9 0 -15 9 -15 21 0 18 2 19 15 9 8 -7 15 -16 15 -21z"/>
<path d="M1747 686 c3 -14 -8 -47 -26 -82 -37 -72 -54 -94 -72 -94 -25 0 73
-50 117 -60 30 -7 51 -6 68 2 29 13 66 81 66 121 0 35 -49 90 -105 116 -55 26
-53 26 -48 -3z m85 -53 c8 -10 18 -26 22 -36 8 -25 -27 -102 -53 -116 -21 -11
-67 -6 -76 9 -8 13 65 160 79 160 7 0 20 -8 28 -17z"/>
<path d="M3368 683 c6 -2 18 -2 25 0 6 3 1 5 -13 5 -14 0 -19 -2 -12 -5z"/>
<path d="M3880 680 c14 -4 32 -8 40 -9 13 -1 13 0 0 9 -8 5 -26 9 -40 9 l-25
-1 25 -8z"/>
<path d="M4540 643 c-8 -3 -39 -16 -67 -31 -50 -24 -52 -26 -30 -36 28 -14 85
-127 93 -188 8 -58 16 -59 100 -19 104 49 129 110 81 202 -33 64 -110 95 -177
72z m94 -60 c31 -31 56 -84 56 -118 0 -25 -51 -75 -76 -75 -8 0 -14 1 -14 3 0
1 -20 47 -45 102 -40 89 -43 101 -27 107 39 15 79 8 106 -19z"/>
<path d="M1953 561 c-58 -36 -69 -94 -30 -152 25 -37 90 -79 123 -79 17 0 34
17 34 34 0 1 -13 1 -29 -2 -53 -8 -111 37 -111 87 0 32 15 33 69 4 47 -24 54
-25 78 -12 l26 14 -40 7 c-51 8 -113 34 -113 47 0 15 41 41 65 41 28 0 85 -37
85 -55 0 -20 16 -19 24 1 8 22 1 31 -43 53 -60 31 -101 35 -138 12z"/>
<path d="M2197 465 c-10 -24 -38 -69 -62 -102 -37 -50 -41 -59 -27 -65 34 -14
50 -8 57 20 3 15 17 45 31 67 l25 40 -2 -79 c-2 -75 -1 -80 21 -88 13 -5 24
-7 24 -6 1 2 15 31 30 65 16 34 33 60 38 57 5 -3 6 -36 4 -74 -5 -64 -4 -68
17 -74 35 -9 36 -8 26 27 -5 17 -10 71 -11 119 -1 67 -4 88 -16 93 -18 7 -14
13 -47 -62 -40 -91 -47 -86 -49 41 -1 39 -5 50 -22 56 -17 7 -22 1 -37 -35z"/>
<path d="M4213 463 c-10 -3 -9 -11 2 -33 23 -45 19 -57 -27 -68 -23 -6 -45 -9
-50 -6 -4 3 -8 23 -8 45 0 37 -2 40 -22 33 -33 -10 -33 -9 -10 -69 12 -30 24
-77 28 -105 4 -27 9 -50 13 -50 3 0 16 3 28 6 l21 6 -19 46 c-11 25 -16 49
-12 53 12 11 82 28 87 21 2 -4 7 -29 11 -55 7 -43 10 -47 29 -41 31 10 31 9 8
82 -13 37 -25 84 -29 105 -6 36 -18 44 -50 30z"/>
<path d="M2460 428 c0 -3 14 -33 31 -68 l30 -63 -46 -47 -47 -47 30 -5 c27 -4
33 0 52 34 12 21 46 65 76 97 29 32 51 61 47 65 -17 16 -49 4 -63 -25 -20 -41
-33 -39 -44 8 -5 21 -10 39 -10 40 -2 4 -56 15 -56 11z"/>
<path d="M3988 411 c-89 -18 -120 -79 -53 -107 19 -7 44 -14 55 -14 26 0 61
-35 54 -54 -8 -20 -69 -39 -100 -32 -19 5 -24 3 -24 -13 0 -29 12 -32 69 -17
66 17 93 41 89 79 -3 33 -12 40 -77 59 -87 26 -74 83 17 76 33 -2 42 0 40 12
-4 18 -21 20 -70 11z"/>
<path d="M3484 378 c17 -57 28 -158 23 -210 l-5 -57 31 6 c18 3 33 7 35 8 1 1
-2 26 -8 55 -6 30 -11 91 -12 137 l-2 83 -34 0 c-31 0 -34 -2 -28 -22z"/>
<path d="M3800 370 c0 -3 7 -30 15 -60 8 -30 15 -79 15 -107 0 -44 3 -53 18
-53 40 1 44 13 28 77 -9 34 -16 82 -16 107 0 45 -1 46 -30 44 -16 -1 -30 -5
-30 -8z"/>
<path d="M3623 353 c-30 -4 -31 -5 -18 -30 19 -36 29 -156 16 -182 -11 -19 -9
-21 20 -21 l32 0 -7 60 c-4 36 -3 60 2 60 11 0 72 -66 72 -78 0 -4 4 -13 9
-21 7 -10 13 -11 31 -1 22 12 22 13 -26 61 -26 27 -46 50 -43 52 2 2 16 8 32
15 21 9 27 18 27 41 0 43 -45 57 -147 44z m91 -28 c19 -19 12 -38 -19 -55 -31
-17 -45 -6 -45 36 0 29 3 34 24 34 14 0 31 -7 40 -15z"/>
<path d="M2874 340 c-51 -20 -69 -92 -38 -151 22 -43 92 -73 150 -64 105 15
129 146 38 206 -31 20 -111 25 -150 9z m132 -44 c44 -44 47 -94 8 -125 -40
-31 -80 -27 -120 13 -40 40 -44 80 -13 120 31 39 81 36 125 -8z"/>
<path d="M3104 225 c-1 -115 -1 -115 23 -115 23 0 24 3 21 53 l-3 52 44 5 c64
7 66 30 3 30 -44 0 -50 2 -45 19 3 11 18 25 34 31 24 10 33 10 52 -3 19 -12
26 -12 40 -2 16 11 16 13 1 26 -18 15 -85 15 -111 1 -11 -7 -21 -6 -31 4 -7 8
-16 14 -20 14 -4 0 -7 -52 -8 -115z"/>
</g>
</svg>
