<svg id="visual" viewBox="0 0 1500 300" width="1500" height="300" xmlns="http://www.w3.org/2000/svg" xmlns:xlink="http://www.w3.org/1999/xlink" version="1.1"><path d="M0 217L35.7 204.8C71.3 192.7 142.7 168.3 214.2 164.2C285.7 160 357.3 176 428.8 188.2C500.3 200.3 571.7 208.7 643 205.5C714.3 202.3 785.7 187.7 857 168.2C928.3 148.7 999.7 124.3 1071.2 115.7C1142.7 107 1214.3 114 1285.8 110C1357.3 106 1428.7 91 1464.3 83.5L1500 76L1500 301L1464.3 301C1428.7 301 1357.3 301 1285.8 301C1214.3 301 1142.7 301 1071.2 301C999.7 301 928.3 301 857 301C785.7 301 714.3 301 643 301C571.7 301 500.3 301 428.8 301C357.3 301 285.7 301 214.2 301C142.7 301 71.3 301 35.7 301L0 301Z" fill="#ffffff" stroke-linecap="round" stroke-linejoin="miter"></path></svg>